solid v3d.csg
  facet normal -0.0 -0.0 -1.0
    outer loop
      vertex 12.0 12.0 0.0
      vertex 12.0 0.0 0.0
      vertex 0.0 12.0 0.0
    endloop
  endfacet
  facet normal 0.0 0.0 -1.0
    outer loop
      vertex 12.0 0.0 0.0
      vertex 11.027339492125845 0.0 0.0
      vertex 0.0 2.193474204277949 0.0
    endloop
  endfacet
  facet normal 0.0 0.0 -1.0
    outer loop
      vertex 12.0 0.0 0.0
      vertex 0.0 2.193474204277949 0.0
      vertex 0.0 12.0 0.0
    endloop
  endfacet
  facet normal 0.0 0.0 -1.0
    outer loop
      vertex 11.027339492125844 0.0 0.0
      vertex 18.0 0.0 0.0
      vertex 16.843161146475442 -1.1568388535245586 0.0
    endloop
  endfacet
  facet normal 0.0 0.0 -1.0
    outer loop
      vertex 11.027339492125845 0.0 0.0
      vertex 7.765366864730177 0.0 0.0
      vertex 6.3826834323650905 0.9238795325112867 0.0
    endloop
  endfacet
  facet normal 0.0 0.0 -1.0
    outer loop
      vertex 7.765366864730177 0.0 0.0
      vertex 11.027339492125844 0.0 0.0
      vertex 16.843161146475442 -1.1568388535245586 0.0
    endloop
  endfacet
  facet normal 0.0 0.0 -1.0
    outer loop
      vertex 7.765366864730177 0.0 0.0
      vertex 16.843161146475442 -1.1568388535245586 0.0
      vertex 13.900580985464488 -4.099419014535512 0.0
    endloop
  endfacet
  facet normal 0.0 0.0 -1.0
    outer loop
      vertex 7.765366864730177 0.0 0.0
      vertex 7.179580427103278 0.0 0.0
      vertex 6.7071067811865515 0.707106781186545 0.0
    endloop
  endfacet
  facet normal 0.0 0.0 -1.0
    outer loop
      vertex 7.179580427103278 0.0 0.0
      vertex 7.765366864730177 0.0 0.0
      vertex 13.900580985464488 -4.099419014535512 0.0
    endloop
  endfacet
  facet normal 0.0 0.0 -1.0
    outer loop
      vertex 7.179580427103278 0.0 0.0
      vertex 13.900580985464488 -4.099419014535512 0.0
      vertex 11.513632576908613 -6.486367423091387 0.0
    endloop
  endfacet
  facet normal 0.0 0.0 -1.0
    outer loop
      vertex 7.179580427103278 0.0 0.0
      vertex 7.000000000000001 0.0 0.0
      vertex 6.923879532511287 0.382683432365094 0.0
    endloop
  endfacet
  facet normal 0.0 0.0 -1.0
    outer loop
      vertex 7.000000000000001 0.0 0.0
      vertex 7.179580427103278 0.0 0.0
      vertex 11.513632576908613 -6.486367423091387 0.0
    endloop
  endfacet
  facet normal 0.0 0.0 -1.0
    outer loop
      vertex 7.000000000000001 0.0 0.0
      vertex 11.513632576908613 -6.486367423091387 0.0
      vertex 8.825017491443855 -9.174982508556145 0.0
    endloop
  endfacet
  facet normal 0.0 -0.0 -1.0
    outer loop
      vertex 7.000000000000001 0.0 0.0
      vertex 8.825017491443855 -9.174982508556145 0.0
      vertex 6.0 -12.0 0.0
    endloop
  endfacet
  facet normal 0.0 -0.0 -1.0
    outer loop
      vertex 7.000000000000001 0.0 0.0
      vertex 6.0 -12.0 0.0
      vertex 4.843161146475442 -10.843161146475442 0.0
    endloop
  endfacet
  facet normal 0.0 0.0 -1.0
    outer loop
      vertex 6.923879532511288 -0.38268343236508645 0.0
      vertex 4.843161146475442 -10.843161146475442 0.0
      vertex 1.9005809854644986 -7.900580985464499 0.0
    endloop
  endfacet
  facet normal 0.0 -0.0 -1.0
    outer loop
      vertex 0.0 -5.188652254619067 0.0
      vertex 0.0 -6.0 0.0
      vertex -0.48636742309140124 -5.5136325769085985 0.0
    endloop
  endfacet
  facet normal 0.0 0.0 -1.0
    outer loop
      vertex 6.707106781186545 -0.7071067811865495 0.0
      vertex 1.9005809854644986 -7.900580985464499 0.0
      vertex 0.0 -6.0 0.0
    endloop
  endfacet
  facet normal 0.0 0.0 -1.0
    outer loop
      vertex 6.707106781186545 -0.7071067811865495 0.0
      vertex 0.0 -6.0 0.0
      vertex 0.0 -5.1886522546190665 0.0
    endloop
  endfacet
  facet normal 0.0 -0.0 -1.0
    outer loop
      vertex 0.0 -2.193474204277949 0.0
      vertex 0.0 -5.188652254619067 0.0
      vertex -0.48636742309140124 -5.5136325769085985 0.0
    endloop
  endfacet
  facet normal 0.0 -0.0 -1.0
    outer loop
      vertex 0.0 -2.193474204277949 0.0
      vertex -0.48636742309140124 -5.5136325769085985 0.0
      vertex -3.174982508556143 -2.8250174914438566 0.0
    endloop
  endfacet
  facet normal 0.0 0.0 -1.0
    outer loop
      vertex 6.3826834323650905 -0.9238795325112864 0.0
      vertex 0.0 -5.1886522546190665 0.0
      vertex 0.0 -2.1934742042779485 0.0
    endloop
  endfacet
  facet normal 0.0 0.0 -1.0
    outer loop
      vertex 0.0 2.0117785755472317 0.0
      vertex 0.0 2.193474204277949 0.0
      vertex 6.0000000000000036 0.9999999999999996 0.0
    endloop
  endfacet
  facet normal 0.0 -0.0 -1.0
    outer loop
      vertex 0.0 -2.0117785755472317 0.0
      vertex 0.0 -2.193474204277949 0.0
      vertex -3.174982508556143 -2.8250174914438566 0.0
    endloop
  endfacet
  facet normal 0.0 -0.0 -1.0
    outer loop
      vertex 0.0 -2.0117785755472317 0.0
      vertex -3.174982508556143 -2.8250174914438566 0.0
      vertex -3.412733058937055 -2.5872669410629445 0.0
    endloop
  endfacet
  facet normal 0.0 0.0 -1.0
    outer loop
      vertex 6.000000000000002 -0.9999999999999993 0.0
      vertex 0.0 -2.1934742042779485 0.0
      vertex 0.0 -2.0117785755472317 0.0
    endloop
  endfacet
  facet normal 0.0 0.0 -1.0
    outer loop
      vertex 0.0 1.67604883048508 0.0
      vertex 0.0 2.0117785755472317 0.0
      vertex 6.0000000000000036 0.9999999999999996 0.0
    endloop
  endfacet
  facet normal 0.0 -0.0 -1.0
    outer loop
      vertex 0.0 -1.6760488304850791 0.0
      vertex 0.0 -2.0117785755472317 0.0
      vertex -3.412733058937055 -2.5872669410629445 0.0
    endloop
  endfacet
  facet normal 0.0 -0.0 -1.0
    outer loop
      vertex 0.0 -1.6760488304850791 0.0
      vertex -3.412733058937055 -2.5872669410629445 0.0
      vertex -3.8860870667425096 -2.11391293325749 0.0
    endloop
  endfacet
  facet normal 0.0 0.0 -1.0
    outer loop
      vertex 6.000000000000002 -0.9999999999999993 0.0
      vertex 0.0 -2.0117785755472317 0.0
      vertex 0.0 -1.6760488304850791 0.0
    endloop
  endfacet
  facet normal 0.0 0.0 -1.0
    outer loop
      vertex 0.0 1.2373967793794802 0.0
      vertex 0.0 1.67604883048508 0.0
      vertex 6.0000000000000036 0.9999999999999996 0.0
    endloop
  endfacet
  facet normal 0.0 -0.0 -1.0
    outer loop
      vertex 0.0 -1.2373967793794811 0.0
      vertex 0.0 -1.6760488304850791 0.0
      vertex -3.8860870667425096 -2.11391293325749 0.0
    endloop
  endfacet
  facet normal 0.0 -0.0 -1.0
    outer loop
      vertex 0.0 -1.2373967793794811 0.0
      vertex -3.8860870667425096 -2.11391293325749 0.0
      vertex -4.581337428812075 -1.4186625711879242 0.0
    endloop
  endfacet
  facet normal 0.0 0.0 -1.0
    outer loop
      vertex 6.000000000000002 -0.9999999999999993 0.0
      vertex 0.0 -1.6760488304850791 0.0
      vertex 0.0 -1.237396779379481 0.0
    endloop
  endfacet
  facet normal 0.0 0.0 -1.0
    outer loop
      vertex 0.0 0.7626032206205197 0.0
      vertex 0.0 1.2373967793794802 0.0
      vertex 6.0000000000000036 0.9999999999999996 0.0
    endloop
  endfacet
  facet normal 0.0 0.0 -1.0
    outer loop
      vertex 0.0 0.3821264588970155 0.0
      vertex 0.0 0.7626032206205197 0.0
      vertex 4.07612046748871 0.9238795325112862 0.0
    endloop
  endfacet
  facet normal 0.0 0.0 -1.0
    outer loop
      vertex -5.633397288527273 -0.3666027114727268 0.0
      vertex -6.0 0.0 0.0
      vertex -2.875098557148414 0.0 0.0
    endloop
  endfacet
  facet normal 0.0 0.0 -1.0
    outer loop
      vertex 0.06984873468504027 0.0 0.0
      vertex 0.0 0.0 0.0
      vertex 0.0 0.3821264588970155 0.0
    endloop
  endfacet
  facet normal 0.0 0.0 -1.0
    outer loop
      vertex 0.06984873468504027 0.0 0.0
      vertex 0.0 0.3821264588970155 0.0
      vertex 2.4451341537908875 0.7071067811865482 0.0
    endloop
  endfacet
  facet normal 0.0 -0.0 -1.0
    outer loop
      vertex 0.0 0.0 0.0
      vertex 0.0 -0.020793506984808627 0.0
      vertex -4.6075648645019145 -1.3924351354980844 0.0
    endloop
  endfacet
  facet normal 0.0 -0.0 -1.0
    outer loop
      vertex 0.0 0.0 0.0
      vertex -4.6075648645019145 -1.3924351354980844 0.0
      vertex -5.633397288527273 -0.3666027114727268 0.0
    endloop
  endfacet
  facet normal 0.0 -0.0 -1.0
    outer loop
      vertex 0.0 0.0 0.0
      vertex -5.633397288527273 -0.3666027114727268 0.0
      vertex -2.875098557148414 0.0 0.0
    endloop
  endfacet
  facet normal 0.0 0.0 -1.0
    outer loop
      vertex 0.0 0.0 0.0
      vertex 0.06984873468503956 0.0 0.0
      vertex 0.0 -0.02079350698480864 0.0
    endloop
  endfacet
  facet normal 0.0 0.0 -1.0
    outer loop
      vertex 0.9726605078741484 0.0 0.0
      vertex 0.06984873468504027 0.0 0.0
      vertex 1.3553439402392344 0.38268343236508556 0.0
    endloop
  endfacet
  facet normal 0.0 -0.0 -1.0
    outer loop
      vertex 0.0 -0.020793506984808627 0.0
      vertex 0.0 -0.9726605078741494 0.0
      vertex -0.27564237345859616 -1.2483028813327457 0.0
    endloop
  endfacet
  facet normal 0.0 -0.0 -1.0
    outer loop
      vertex 0.0 -0.020793506984808627 0.0
      vertex -0.27564237345859616 -1.2483028813327457 0.0
      vertex -4.581337428812075 -1.4186625711879242 0.0
    endloop
  endfacet
  facet normal 0.0 -0.0 -1.0
    outer loop
      vertex 0.0 -0.020793506984808627 0.0
      vertex -4.581337428812075 -1.4186625711879242 0.0
      vertex -4.6075648645019145 -1.3924351354980844 0.0
    endloop
  endfacet
  facet normal 0.0 -0.0 -1.0
    outer loop
      vertex 0.06984873468503956 0.0 0.0
      vertex 0.9726605078741489 0.0 0.0
      vertex 0.0 -0.9726605078741494 0.0
    endloop
  endfacet
  facet normal 0.0 -0.0 -1.0
    outer loop
      vertex 0.06984873468503956 0.0 0.0
      vertex 0.0 -0.9726605078741494 0.0
      vertex 0.0 -0.02079350698480864 0.0
    endloop
  endfacet
  facet normal 0.0 -0.0 -1.0
    outer loop
      vertex 0.0 -0.9726605078741494 0.0
      vertex 0.0 -1.2373967793794811 0.0
      vertex -0.27564237345859616 -1.2483028813327457 0.0
    endloop
  endfacet
  facet normal 0.0 -0.0 -1.0
    outer loop
      vertex 0.9726605078741489 0.0 0.0
      vertex 2.125941990312342 -1.1532814824381885 0.0
      vertex 0.0 -1.237396779379481 0.0
    endloop
  endfacet
  facet normal 0.0 -0.0 -1.0
    outer loop
      vertex 0.9726605078741489 0.0 0.0
      vertex 0.0 -1.237396779379481 0.0
      vertex 0.0 -0.9726605078741494 0.0
    endloop
  endfacet
  facet normal -0.0 0.0 -1.0
    outer loop
      vertex 3.730629359345088 -1.0897902135516373 0.0
      vertex 2.125941990312342 -1.1532814824381885 0.0
      vertex 1.35534394023924 -0.3826834323650896 0.0
    endloop
  endfacet
  facet normal -0.0 0.0 -1.0
    outer loop
      vertex 4.958803899853802 -1.0411961001461967 0.0
      vertex 3.730629359345088 -1.0897902135516373 0.0
      vertex 2.445134153790873 -0.7071067811865459 0.0
    endloop
  endfacet
  facet normal -0.0 0.0 -1.0
    outer loop
      vertex 6.000000000000002 -0.9999999999999993 0.0
      vertex 4.958803899853802 -1.0411961001461967 0.0
      vertex 4.076120467488714 -0.9238795325112864 0.0
    endloop
  endfacet
  facet normal 0.0 0.0 -1.0
    outer loop
      vertex 1.8632974995527858 0.5338978520846596 0.0
      vertex 2.4451341537908875 0.7071067811865482 0.0
      vertex 4.07612046748871 0.9238795325112862 0.0
    endloop
  endfacet
  facet normal 0.0 0.0 -1.0
    outer loop
      vertex 1.8632974995527858 0.5338978520846596 0.0
      vertex 4.07612046748871 0.9238795325112862 0.0
      vertex 6.0000000000000036 0.9999999999999996 0.0
    endloop
  endfacet
  facet normal 0.0 0.0 -1.0
    outer loop
      vertex 2.8834798329127356 0.0 0.0
      vertex 0.9726605078741484 0.0 0.0
      vertex 1.3553439402392344 0.38268343236508556 0.0
    endloop
  endfacet
  facet normal 0.0 0.0 -1.0
    outer loop
      vertex 2.8834798329127356 0.0 0.0
      vertex 1.3553439402392344 0.38268343236508556 0.0
      vertex 1.8632974995527858 0.5338978520846596 0.0
    endloop
  endfacet
  facet normal 0.0 0.0 -1.0
    outer loop
      vertex 2.8834798329127356 0.0 0.0
      vertex 1.8632974995527858 0.5338978520846596 0.0
      vertex 5.3244233488214565 0.9238795325112859 0.0
    endloop
  endfacet
  facet normal 0.0 0.0 -1.0
    outer loop
      vertex 0.9726605078741489 0.0 0.0
      vertex 2.8834798329127365 0.0 0.0
      vertex 1.6447686504207628 -0.4688432570186447 0.0
    endloop
  endfacet
  facet normal 0.0 0.0 -1.0
    outer loop
      vertex 0.9726605078741489 0.0 0.0
      vertex 1.6447686504207628 -0.4688432570186447 0.0
      vertex 1.35534394023924 -0.3826834323650896 0.0
    endloop
  endfacet
  facet normal 0.0 0.0 -1.0
    outer loop
      vertex 3.9176077997076053 0.0 0.0
      vertex 2.8834798329127356 0.0 0.0
      vertex 4.751697118667253 0.7071067811865462 0.0
    endloop
  endfacet
  facet normal 0.0 0.0 -1.0
    outer loop
      vertex 2.8834798329127365 0.0 0.0
      vertex 3.9176077997076053 0.0 0.0
      vertex 2.9969988696649974 -0.7804545657843527 0.0
    endloop
  endfacet
  facet normal 0.0 0.0 -1.0
    outer loop
      vertex 2.8834798329127365 0.0 0.0
      vertex 2.9969988696649974 -0.7804545657843527 0.0
      vertex 2.445134153790873 -0.7071067811865459 0.0
    endloop
  endfacet
  facet normal 0.0 0.0 -1.0
    outer loop
      vertex 2.8834798329127365 0.0 0.0
      vertex 2.445134153790873 -0.7071067811865459 0.0
      vertex 1.6447686504207628 -0.4688432570186447 0.0
    endloop
  endfacet
  facet normal 0.0 0.0 -1.0
    outer loop
      vertex 4.2346331352698225 0.0 0.0
      vertex 3.9176077997076053 0.0 0.0
      vertex 4.36901368630217 0.3826834323650939 0.0
    endloop
  endfacet
  facet normal 0.0 0.0 -1.0
    outer loop
      vertex 3.9176077997076053 0.0 0.0
      vertex 4.2346331352698225 0.0 0.0
      vertex 3.917607799707606 -0.902811773189119 0.0
    endloop
  endfacet
  facet normal 0.0 0.0 -1.0
    outer loop
      vertex 3.9176077997076053 0.0 0.0
      vertex 3.917607799707606 -0.902811773189119 0.0
      vertex 2.9969988696649974 -0.7804545657843527 0.0
    endloop
  endfacet
  facet normal 0.0 -0.0 -1.0
    outer loop
      vertex 4.2346331352698225 0.0 0.0
      vertex 4.5658608275270955 -0.9432566632121628 0.0
      vertex 4.076120467488714 -0.9238795325112864 0.0
    endloop
  endfacet
  facet normal 0.0 -0.0 -1.0
    outer loop
      vertex 4.2346331352698225 0.0 0.0
      vertex 4.076120467488714 -0.9238795325112864 0.0
      vertex 3.917607799707606 -0.902811773189119 0.0
    endloop
  endfacet
  facet normal 0.0 0.0 -1.0
    outer loop
      vertex 5.052989909382389 -0.9625304757412511 0.0
      vertex 4.5658608275270955 -0.9432566632121628 0.0
      vertex 4.369013686302166 -0.38268343236508795 0.0
    endloop
  endfacet
  facet normal 0.0 0.0 -1.0
    outer loop
      vertex 5.4701496050113185 -0.979035870446123 0.0
      vertex 5.052989909382389 -0.9625304757412511 0.0
      vertex 4.751697118667258 -0.7071067811865488 0.0
    endloop
  endfacet
  facet normal 0.0 0.0 -1.0
    outer loop
      vertex 6.000000000000002 -0.9999999999999993 0.0
      vertex 5.4701496050113185 -0.979035870446123 0.0
      vertex 5.3244233488214565 -0.9238795325112864 0.0
    endloop
  endfacet
  facet normal 0.0 0.0 -1.0
    outer loop
      vertex 5.144296994642089 0.8557030053579148 0.0
      vertex 5.3244233488214565 0.9238795325112859 0.0
      vertex 6.0000000000000036 0.9999999999999996 0.0
    endloop
  endfacet
  facet normal 0.0 0.0 -1.0
    outer loop
      vertex 4.313351439545402 0.22417076458398477 0.0
      vertex 4.36901368630217 0.3826834323650939 0.0
      vertex 4.751697118667253 0.7071067811865462 0.0
    endloop
  endfacet
  facet normal 0.0 0.0 -1.0
    outer loop
      vertex 4.313351439545402 0.22417076458398477 0.0
      vertex 4.751697118667253 0.7071067811865462 0.0
      vertex 5.144296994642089 0.8557030053579148 0.0
    endloop
  endfacet
  facet normal 0.0 0.0 -1.0
    outer loop
      vertex 4.313351439545402 0.22417076458398477 0.0
      vertex 5.144296994642089 0.8557030053579148 0.0
      vertex 5.548594113405439 0.9238795325112862 0.0
    endloop
  endfacet
  facet normal 0.0 0.0 -1.0
    outer loop
      vertex 4.608590015994855 0.0 0.0
      vertex 4.2346331352698225 0.0 0.0
      vertex 4.313351439545402 0.22417076458398477 0.0
    endloop
  endfacet
  facet normal 0.0 0.0 -1.0
    outer loop
      vertex 4.608590015994855 0.0 0.0
      vertex 4.313351439545402 0.22417076458398477 0.0
      vertex 5.165910681040351 0.7071067811865475 0.0
    endloop
  endfacet
  facet normal 0.0 0.0 -1.0
    outer loop
      vertex 4.2346331352698225 0.0 0.0
      vertex 4.608590015994855 0.0 0.0
      vertex 4.349891150499972 -0.32822705768817156 0.0
    endloop
  endfacet
  facet normal 0.0 0.0 -1.0
    outer loop
      vertex 4.820419572896725 0.0 0.0
      vertex 4.608590015994855 0.0 0.0
      vertex 4.910209786448362 0.38268343236508934 0.0
    endloop
  endfacet
  facet normal 0.0 0.0 -1.0
    outer loop
      vertex 4.608590015994855 0.0 0.0
      vertex 4.820419572896724 0.0 0.0
      vertex 4.670633456755671 -0.6383843269570755 0.0
    endloop
  endfacet
  facet normal 0.0 0.0 -1.0
    outer loop
      vertex 4.608590015994855 0.0 0.0
      vertex 4.670633456755671 -0.6383843269570755 0.0
      vertex 4.369013686302166 -0.38268343236508795 0.0
    endloop
  endfacet
  facet normal 0.0 0.0 -1.0
    outer loop
      vertex 4.608590015994855 0.0 0.0
      vertex 4.369013686302166 -0.38268343236508795 0.0
      vertex 4.349891150499972 -0.32822705768817156 0.0
    endloop
  endfacet
  facet normal 0.0 -0.0 -1.0
    outer loop
      vertex 4.820419572896724 0.0 0.0
      vertex 5.009198134000187 -0.8045690600621017 0.0
      vertex 4.751697118667258 -0.7071067811865488 0.0
    endloop
  endfacet
  facet normal 0.0 -0.0 -1.0
    outer loop
      vertex 4.820419572896724 0.0 0.0
      vertex 4.751697118667258 -0.7071067811865488 0.0
      vertex 4.670633456755671 -0.6383843269570755 0.0
    endloop
  endfacet
  facet normal 0.0 0.0 -1.0
    outer loop
      vertex 5.337967358728345 -0.9254056011875581 0.0
      vertex 5.3244233488214565 -0.9238795325112864 0.0
      vertex 5.009198134000187 -0.8045690600621017 0.0
    endloop
  endfacet
  facet normal 0.0 0.0 -1.0
    outer loop
      vertex 5.337967358728345 -0.9254056011875581 0.0
      vertex 5.009198134000187 -0.8045690600621017 0.0
      vertex 4.910209786448362 -0.38268343236509184 0.0
    endloop
  endfacet
  facet normal 0.0 0.0 -1.0
    outer loop
      vertex 5.604256360162204 -0.9554096625192912 0.0
      vertex 5.337967358728345 -0.9254056011875581 0.0
      vertex 5.165910681040349 -0.7071067811865472 0.0
    endloop
  endfacet
  facet normal 0.0 0.0 -1.0
    outer loop
      vertex 6.000000000000002 -0.9999999999999993 0.0
      vertex 5.604256360162204 -0.9554096625192912 0.0
      vertex 5.548594113405438 -0.9238795325112866 0.0
    endloop
  endfacet
  facet normal 0.0 0.0 -1.0
    outer loop
      vertex 5.511401789183975 0.9028117731891193 0.0
      vertex 5.548594113405439 0.9238795325112862 0.0
      vertex 6.0000000000000036 0.9999999999999996 0.0
    endloop
  endfacet
  facet normal 0.0 0.0 -1.0
    outer loop
      vertex 5.024636128095317 0.5278631236983107 0.0
      vertex 5.165910681040351 0.7071067811865475 0.0
      vertex 5.511401789183975 0.9028117731891193 0.0
    endloop
  endfacet
  facet normal 0.0 0.0 -1.0
    outer loop
      vertex 5.024636128095317 0.5278631236983107 0.0
      vertex 5.511401789183975 0.9028117731891193 0.0
      vertex 5.6173165676349095 0.9238795325112863 0.0
    endloop
  endfacet
  facet normal 0.0 0.0 -1.0
    outer loop
      vertex 4.820419572896725 0.0 0.0
      vertex 4.910209786448362 0.38268343236508934 0.0
      vertex 5.024636128095317 0.5278631236983107 0.0
    endloop
  endfacet
  facet normal 0.0 0.0 -1.0
    outer loop
      vertex 4.820419572896725 0.0 0.0
      vertex 5.024636128095317 0.5278631236983107 0.0
      vertex 5.292893218813451 0.7071067811865471 0.0
    endloop
  endfacet
  facet normal 0.0 0.0 -1.0
    outer loop
      vertex 5.0 0.0 0.0
      vertex 4.820419572896725 0.0 0.0
      vertex 5.076120467488712 0.3826834323650895 0.0
    endloop
  endfacet
  facet normal 0.0 0.0 -1.0
    outer loop
      vertex 4.820419572896724 0.0 0.0
      vertex 4.999999999999999 0.0 0.0
      vertex 4.921124868442586 -0.3965320638252105 0.0
    endloop
  endfacet
  facet normal 0.0 0.0 -1.0
    outer loop
      vertex 4.820419572896724 0.0 0.0
      vertex 4.921124868442586 -0.3965320638252105 0.0
      vertex 4.910209786448362 -0.38268343236509184 0.0
    endloop
  endfacet
  facet normal 0.0 -0.0 -1.0
    outer loop
      vertex 4.999999999999999 0.0 0.0
      vertex 5.132125955914254 -0.6642420361026101 0.0
      vertex 4.921124868442586 -0.3965320638252105 0.0
    endloop
  endfacet
  facet normal 0.0 0.0 -1.0
    outer loop
      vertex 5.3702245436084555 -0.8228412875093075 0.0
      vertex 5.165910681040349 -0.7071067811865472 0.0
      vertex 5.132125955914254 -0.6642420361026101 0.0
    endloop
  endfacet
  facet normal 0.0 0.0 -1.0
    outer loop
      vertex 5.3702245436084555 -0.8228412875093075 0.0
      vertex 5.132125955914254 -0.6642420361026101 0.0
      vertex 5.076120467488713 -0.38268343236509117 0.0
    endloop
  endfacet
  facet normal 0.0 0.0 -1.0
    outer loop
      vertex 5.6405148005080985 -0.9393800961546285 0.0
      vertex 5.548594113405438 -0.9238795325112866 0.0
      vertex 5.3702245436084555 -0.8228412875093075 0.0
    endloop
  endfacet
  facet normal 0.0 0.0 -1.0
    outer loop
      vertex 5.6405148005080985 -0.9393800961546285 0.0
      vertex 5.3702245436084555 -0.8228412875093075 0.0
      vertex 5.29289321881345 -0.7071067811865464 0.0
    endloop
  endfacet
  facet normal 0.0 0.0 -1.0
    outer loop
      vertex 6.000000000000002 -0.9999999999999993 0.0
      vertex 5.6405148005080985 -0.9393800961546285 0.0
      vertex 5.6173165676349095 -0.9238795325112866 0.0
    endloop
  endfacet
  facet normal -0.1949435948296471 0.9800476330240646 -0.03877669195306555
    outer loop
      vertex 6.0 1.0 0.0
      vertex 5.646446609406726 0.9238795325112867 -0.1464466094067262
      vertex 5.61731656763491 0.9238795325112867 4.6865204053262986E-17
    endloop
  endfacet
  facet normal -0.5522085656517688 0.8264385215476814 -0.1098411130811173
    outer loop
      vertex 5.61731656763491 0.9238795325112867 4.6865204053262986E-17
      vertex 5.646446609406726 0.9238795325112867 -0.1464466094067262
      vertex 5.346718517561811 0.7071067811865476 -0.2705980500730984
    endloop
  endfacet
  facet normal -0.5522085656517688 0.8264385215476814 -0.1098411130811173
    outer loop
      vertex 5.61731656763491 0.9238795325112867 4.6865204053262986E-17
      vertex 5.346718517561811 0.7071067811865476 -0.2705980500730984
      vertex 5.292893218813452 0.7071067811865476 8.659560562354932E-17
    endloop
  endfacet
  facet normal -0.8203258243119308 0.5481241919387714 -0.1631729517365553
    outer loop
      vertex 5.292893218813452 0.7071067811865476 8.659560562354932E-17
      vertex 5.346718517561811 0.7071067811865476 -0.2705980500730984
      vertex 5.146446609406726 0.38268343236508984 -0.3535533905932737
    endloop
  endfacet
  facet normal -0.8203258243119308 0.5481241919387714 -0.1631729517365553
    outer loop
      vertex 5.292893218813452 0.7071067811865476 8.659560562354932E-17
      vertex 5.146446609406726 0.38268343236508984 -0.3535533905932737
      vertex 5.076120467488713 0.38268343236508984 1.1314261122877003E-16
    endloop
  endfacet
  facet normal -0.9626372481397794 0.19148045395532282 -0.19148045395532282
    outer loop
      vertex 5.076120467488713 0.38268343236508984 1.1314261122877003E-16
      vertex 5.146446609406726 0.38268343236508984 -0.3535533905932737
      vertex 5.076120467488713 6.123233995736766E-17 -0.38268343236508967
    endloop
  endfacet
  facet normal -0.9626372481397794 0.19148045395532282 -0.19148045395532282
    outer loop
      vertex 5.076120467488713 0.38268343236508984 1.1314261122877003E-16
      vertex 5.076120467488713 6.123233995736766E-17 -0.38268343236508967
      vertex 5.0 6.123233995736766E-17 1.2246467991473532E-16
    endloop
  endfacet
  facet normal -0.9626372481397795 -0.19148045395532282 -0.19148045395532232
    outer loop
      vertex 5.0 6.123233995736766E-17 1.2246467991473532E-16
      vertex 5.076120467488713 6.123233995736766E-17 -0.38268343236508967
      vertex 5.146446609406726 -0.3826834323650897 -0.3535533905932737
    endloop
  endfacet
  facet normal -0.9626372481397795 -0.19148045395532282 -0.19148045395532232
    outer loop
      vertex 5.0 6.123233995736766E-17 1.2246467991473532E-16
      vertex 5.146446609406726 -0.3826834323650897 -0.3535533905932737
      vertex 5.076120467488713 -0.3826834323650897 1.1314261122877003E-16
    endloop
  endfacet
  facet normal -0.8203258243119308 -0.5481241919387714 -0.1631729517365556
    outer loop
      vertex 5.076120467488713 -0.3826834323650897 1.1314261122877003E-16
      vertex 5.146446609406726 -0.3826834323650897 -0.3535533905932737
      vertex 5.346718517561811 -0.7071067811865475 -0.27059805007309845
    endloop
  endfacet
  facet normal -0.8203258243119308 -0.5481241919387714 -0.1631729517365556
    outer loop
      vertex 5.076120467488713 -0.3826834323650897 1.1314261122877003E-16
      vertex 5.346718517561811 -0.7071067811865475 -0.27059805007309845
      vertex 5.292893218813452 -0.7071067811865475 8.659560562354934E-17
    endloop
  endfacet
  facet normal -0.5522085656517687 -0.8264385215476814 -0.10984111308111841
    outer loop
      vertex 5.292893218813452 -0.7071067811865475 8.659560562354934E-17
      vertex 5.346718517561811 -0.7071067811865475 -0.27059805007309845
      vertex 5.646446609406726 -0.9238795325112867 -0.14644660940672624
    endloop
  endfacet
  facet normal -0.5522085656517687 -0.8264385215476814 -0.10984111308111841
    outer loop
      vertex 5.292893218813452 -0.7071067811865475 8.659560562354934E-17
      vertex 5.646446609406726 -0.9238795325112867 -0.14644660940672624
      vertex 5.61731656763491 -0.9238795325112867 4.6865204053263E-17
    endloop
  endfacet
  facet normal -0.19494359482964713 -0.9800476330240646 -0.03877669195306549
    outer loop
      vertex 5.61731656763491 -0.9238795325112867 4.6865204053263E-17
      vertex 5.646446609406726 -0.9238795325112867 -0.14644660940672624
      vertex 6.0 -1.0 1.4997597826618576E-32
    endloop
  endfacet
  facet normal -0.1652651996849207 0.9800476330240646 -0.11042667602093184
    outer loop
      vertex 6.0 1.0 0.0
      vertex 5.729401949926902 0.9238795325112867 -0.27059805007309845
      vertex 5.646446609406726 0.9238795325112867 -0.1464466094067262
    endloop
  endfacet
  facet normal -0.4681398173143987 0.8264385215476815 -0.31280102548892613
    outer loop
      vertex 5.646446609406726 0.9238795325112867 -0.1464466094067262
      vertex 5.729401949926902 0.9238795325112867 -0.27059805007309845
      vertex 5.5 0.7071067811865476 -0.4999999999999999
    endloop
  endfacet
  facet normal -0.4681398173143987 0.8264385215476815 -0.31280102548892613
    outer loop
      vertex 5.646446609406726 0.9238795325112867 -0.1464466094067262
      vertex 5.5 0.7071067811865476 -0.4999999999999999
      vertex 5.346718517561811 0.7071067811865476 -0.2705980500730984
    endloop
  endfacet
  facet normal -0.695438653832553 0.5481241919387727 -0.4646772524742675
    outer loop
      vertex 5.346718517561811 0.7071067811865476 -0.2705980500730984
      vertex 5.5 0.7071067811865476 -0.4999999999999999
      vertex 5.346718517561811 0.38268343236508984 -0.6532814824381882
    endloop
  endfacet
  facet normal -0.695438653832553 0.5481241919387727 -0.4646772524742675
    outer loop
      vertex 5.346718517561811 0.7071067811865476 -0.2705980500730984
      vertex 5.346718517561811 0.38268343236508984 -0.6532814824381882
      vertex 5.146446609406726 0.38268343236508984 -0.3535533905932737
    endloop
  endfacet
  facet normal -0.8160844534388827 0.1914804539553226 -0.5452901985259074
    outer loop
      vertex 5.146446609406726 0.38268343236508984 -0.3535533905932737
      vertex 5.346718517561811 0.38268343236508984 -0.6532814824381882
      vertex 5.292893218813452 6.123233995736766E-17 -0.7071067811865475
    endloop
  endfacet
  facet normal -0.8160844534388827 0.1914804539553226 -0.5452901985259074
    outer loop
      vertex 5.146446609406726 0.38268343236508984 -0.3535533905932737
      vertex 5.292893218813452 6.123233995736766E-17 -0.7071067811865475
      vertex 5.076120467488713 6.123233995736766E-17 -0.38268343236508967
    endloop
  endfacet
  facet normal -0.8160844534388827 -0.19148045395532262 -0.5452901985259077
    outer loop
      vertex 5.076120467488713 6.123233995736766E-17 -0.38268343236508967
      vertex 5.292893218813452 6.123233995736766E-17 -0.7071067811865475
      vertex 5.346718517561811 -0.3826834323650897 -0.6532814824381882
    endloop
  endfacet
  facet normal -0.8160844534388827 -0.19148045395532262 -0.5452901985259077
    outer loop
      vertex 5.076120467488713 6.123233995736766E-17 -0.38268343236508967
      vertex 5.346718517561811 -0.3826834323650897 -0.6532814824381882
      vertex 5.146446609406726 -0.3826834323650897 -0.3535533905932737
    endloop
  endfacet
  facet normal -0.6954386538325541 -0.5481241919387724 -0.4646772524742662
    outer loop
      vertex 5.146446609406726 -0.3826834323650897 -0.3535533905932737
      vertex 5.346718517561811 -0.3826834323650897 -0.6532814824381882
      vertex 5.5 -0.7071067811865475 -0.5
    endloop
  endfacet
  facet normal -0.6954386538325541 -0.5481241919387724 -0.4646772524742662
    outer loop
      vertex 5.146446609406726 -0.3826834323650897 -0.3535533905932737
      vertex 5.5 -0.7071067811865475 -0.5
      vertex 5.346718517561811 -0.7071067811865475 -0.27059805007309845
    endloop
  endfacet
  facet normal -0.4681398173143993 -0.8264385215476814 -0.31280102548892563
    outer loop
      vertex 5.346718517561811 -0.7071067811865475 -0.27059805007309845
      vertex 5.5 -0.7071067811865475 -0.5
      vertex 5.729401949926902 -0.9238795325112867 -0.27059805007309856
    endloop
  endfacet
  facet normal -0.4681398173143993 -0.8264385215476814 -0.31280102548892563
    outer loop
      vertex 5.346718517561811 -0.7071067811865475 -0.27059805007309845
      vertex 5.729401949926902 -0.9238795325112867 -0.27059805007309856
      vertex 5.646446609406726 -0.9238795325112867 -0.14644660940672624
    endloop
  endfacet
  facet normal -0.16526519968492073 -0.9800476330240646 -0.11042667602093184
    outer loop
      vertex 5.646446609406726 -0.9238795325112867 -0.14644660940672624
      vertex 5.729401949926902 -0.9238795325112867 -0.27059805007309856
      vertex 6.0 -1.0 -4.686520405326297E-17
    endloop
  endfacet
  facet normal -0.11042667602093151 0.9800476330240646 -0.1652651996849211
    outer loop
      vertex 6.0 1.0 0.0
      vertex 5.853553390593274 0.9238795325112867 -0.3535533905932737
      vertex 5.729401949926902 0.9238795325112867 -0.27059805007309845
    endloop
  endfacet
  facet normal -0.31280102548892486 0.8264385215476816 -0.46813981731439946
    outer loop
      vertex 5.729401949926902 0.9238795325112867 -0.27059805007309845
      vertex 5.853553390593274 0.9238795325112867 -0.3535533905932737
      vertex 5.729401949926901 0.7071067811865476 -0.6532814824381881
    endloop
  endfacet
  facet normal -0.31280102548892486 0.8264385215476816 -0.46813981731439946
    outer loop
      vertex 5.729401949926902 0.9238795325112867 -0.27059805007309845
      vertex 5.729401949926901 0.7071067811865476 -0.6532814824381881
      vertex 5.5 0.7071067811865476 -0.4999999999999999
    endloop
  endfacet
  facet normal -0.4646772524742678 0.5481241919387713 -0.6954386538325539
    outer loop
      vertex 5.5 0.7071067811865476 -0.4999999999999999
      vertex 5.729401949926901 0.7071067811865476 -0.6532814824381881
      vertex 5.646446609406726 0.38268343236508984 -0.8535533905932735
    endloop
  endfacet
  facet normal -0.4646772524742678 0.5481241919387713 -0.6954386538325539
    outer loop
      vertex 5.5 0.7071067811865476 -0.4999999999999999
      vertex 5.646446609406726 0.38268343236508984 -0.8535533905932735
      vertex 5.346718517561811 0.38268343236508984 -0.6532814824381882
    endloop
  endfacet
  facet normal -0.5452901985259073 0.19148045395532357 -0.8160844534388827
    outer loop
      vertex 5.346718517561811 0.38268343236508984 -0.6532814824381882
      vertex 5.646446609406726 0.38268343236508984 -0.8535533905932735
      vertex 5.6173165676349095 6.123233995736766E-17 -0.9238795325112865
    endloop
  endfacet
  facet normal -0.5452901985259073 0.19148045395532357 -0.8160844534388827
    outer loop
      vertex 5.346718517561811 0.38268343236508984 -0.6532814824381882
      vertex 5.6173165676349095 6.123233995736766E-17 -0.9238795325112865
      vertex 5.292893218813452 6.123233995736766E-17 -0.7071067811865475
    endloop
  endfacet
  facet normal -0.5452901985259081 -0.1914804539553236 -0.8160844534388823
    outer loop
      vertex 5.292893218813452 6.123233995736766E-17 -0.7071067811865475
      vertex 5.6173165676349095 6.123233995736766E-17 -0.9238795325112865
      vertex 5.646446609406726 -0.3826834323650897 -0.8535533905932735
    endloop
  endfacet
  facet normal -0.5452901985259081 -0.1914804539553236 -0.8160844534388823
    outer loop
      vertex 5.292893218813452 6.123233995736766E-17 -0.7071067811865475
      vertex 5.646446609406726 -0.3826834323650897 -0.8535533905932735
      vertex 5.346718517561811 -0.3826834323650897 -0.6532814824381882
    endloop
  endfacet
  facet normal -0.46467725247426644 -0.5481241919387712 -0.6954386538325548
    outer loop
      vertex 5.346718517561811 -0.3826834323650897 -0.6532814824381882
      vertex 5.646446609406726 -0.3826834323650897 -0.8535533905932735
      vertex 5.729401949926901 -0.7071067811865475 -0.6532814824381882
    endloop
  endfacet
  facet normal -0.46467725247426644 -0.5481241919387712 -0.6954386538325548
    outer loop
      vertex 5.346718517561811 -0.3826834323650897 -0.6532814824381882
      vertex 5.729401949926901 -0.7071067811865475 -0.6532814824381882
      vertex 5.5 -0.7071067811865475 -0.5
    endloop
  endfacet
  facet normal -0.3128010254889259 -0.826438521547681 -0.4681398173143999
    outer loop
      vertex 5.5 -0.7071067811865475 -0.5
      vertex 5.729401949926901 -0.7071067811865475 -0.6532814824381882
      vertex 5.853553390593273 -0.9238795325112867 -0.3535533905932738
    endloop
  endfacet
  facet normal -0.3128010254889259 -0.826438521547681 -0.4681398173143999
    outer loop
      vertex 5.5 -0.7071067811865475 -0.5
      vertex 5.853553390593273 -0.9238795325112867 -0.3535533905932738
      vertex 5.729401949926902 -0.9238795325112867 -0.27059805007309856
    endloop
  endfacet
  facet normal -0.11042667602093198 -0.9800476330240646 -0.16526519968492057
    outer loop
      vertex 5.729401949926902 -0.9238795325112867 -0.27059805007309856
      vertex 5.853553390593273 -0.9238795325112867 -0.3535533905932738
      vertex 6.0 -1.0 -8.659560562354932E-17
    endloop
  endfacet
  facet normal -0.038776691953066135 0.9800476330240646 -0.19494359482964702
    outer loop
      vertex 6.0 1.0 0.0
      vertex 6.0 0.9238795325112867 -0.3826834323650898
      vertex 5.853553390593274 0.9238795325112867 -0.3535533905932737
    endloop
  endfacet
  facet normal -0.10984111308111913 0.8264385215476812 -0.5522085656517687
    outer loop
      vertex 5.853553390593274 0.9238795325112867 -0.3535533905932737
      vertex 6.0 0.9238795325112867 -0.3826834323650898
      vertex 6.0 0.7071067811865476 -0.7071067811865475
    endloop
  endfacet
  facet normal -0.10984111308111913 0.8264385215476812 -0.5522085656517687
    outer loop
      vertex 5.853553390593274 0.9238795325112867 -0.3535533905932737
      vertex 6.0 0.7071067811865476 -0.7071067811865475
      vertex 5.729401949926901 0.7071067811865476 -0.6532814824381881
    endloop
  endfacet
  facet normal -0.1631729517365555 0.5481241919387719 -0.8203258243119304
    outer loop
      vertex 5.729401949926901 0.7071067811865476 -0.6532814824381881
      vertex 6.0 0.7071067811865476 -0.7071067811865475
      vertex 6.0 0.38268343236508984 -0.9238795325112867
    endloop
  endfacet
  facet normal -0.1631729517365555 0.5481241919387719 -0.8203258243119304
    outer loop
      vertex 5.729401949926901 0.7071067811865476 -0.6532814824381881
      vertex 6.0 0.38268343236508984 -0.9238795325112867
      vertex 5.646446609406726 0.38268343236508984 -0.8535533905932735
    endloop
  endfacet
  facet normal -0.19148045395532332 0.1914804539553228 -0.9626372481397792
    outer loop
      vertex 5.646446609406726 0.38268343236508984 -0.8535533905932735
      vertex 6.0 0.38268343236508984 -0.9238795325112867
      vertex 6.0 6.123233995736766E-17 -1.0
    endloop
  endfacet
  facet normal -0.19148045395532332 0.1914804539553228 -0.9626372481397792
    outer loop
      vertex 5.646446609406726 0.38268343236508984 -0.8535533905932735
      vertex 6.0 6.123233995736766E-17 -1.0
      vertex 5.6173165676349095 6.123233995736766E-17 -0.9238795325112865
    endloop
  endfacet
  facet normal -0.19148045395532304 -0.19148045395532284 -0.9626372481397792
    outer loop
      vertex 5.6173165676349095 6.123233995736766E-17 -0.9238795325112865
      vertex 6.0 6.123233995736766E-17 -1.0
      vertex 6.0 -0.3826834323650897 -0.9238795325112867
    endloop
  endfacet
  facet normal -0.19148045395532304 -0.19148045395532284 -0.9626372481397792
    outer loop
      vertex 5.6173165676349095 6.123233995736766E-17 -0.9238795325112865
      vertex 6.0 -0.3826834323650897 -0.9238795325112867
      vertex 5.646446609406726 -0.3826834323650897 -0.8535533905932735
    endloop
  endfacet
  facet normal -0.16317295173655597 -0.5481241919387716 -0.8203258243119306
    outer loop
      vertex 5.646446609406726 -0.3826834323650897 -0.8535533905932735
      vertex 6.0 -0.3826834323650897 -0.9238795325112867
      vertex 6.0 -0.7071067811865475 -0.7071067811865476
    endloop
  endfacet
  facet normal -0.16317295173655597 -0.5481241919387716 -0.8203258243119306
    outer loop
      vertex 5.646446609406726 -0.3826834323650897 -0.8535533905932735
      vertex 6.0 -0.7071067811865475 -0.7071067811865476
      vertex 5.729401949926901 -0.7071067811865475 -0.6532814824381882
    endloop
  endfacet
  facet normal -0.10984111308111869 -0.826438521547681 -0.5522085656517689
    outer loop
      vertex 5.729401949926901 -0.7071067811865475 -0.6532814824381882
      vertex 6.0 -0.7071067811865475 -0.7071067811865476
      vertex 6.0 -0.9238795325112867 -0.3826834323650899
    endloop
  endfacet
  facet normal -0.10984111308111869 -0.826438521547681 -0.5522085656517689
    outer loop
      vertex 5.729401949926901 -0.7071067811865475 -0.6532814824381882
      vertex 6.0 -0.9238795325112867 -0.3826834323650899
      vertex 5.853553390593273 -0.9238795325112867 -0.3535533905932738
    endloop
  endfacet
  facet normal -0.03877669195306589 -0.9800476330240646 -0.19494359482964702
    outer loop
      vertex 5.853553390593273 -0.9238795325112867 -0.3535533905932738
      vertex 6.0 -0.9238795325112867 -0.3826834323650899
      vertex 6.0 -1.0 -1.1314261122877E-16
    endloop
  endfacet
  facet normal 0.03877669195306602 0.9800476330240646 -0.19494359482964702
    outer loop
      vertex 6.0 1.0 0.0
      vertex 6.146446609406726 0.9238795325112867 -0.35355339059327373
      vertex 6.0 0.9238795325112867 -0.3826834323650898
    endloop
  endfacet
  facet normal 0.10984111308111891 0.8264385215476812 -0.5522085656517687
    outer loop
      vertex 6.0 0.9238795325112867 -0.3826834323650898
      vertex 6.146446609406726 0.9238795325112867 -0.35355339059327373
      vertex 6.270598050073098 0.7071067811865476 -0.6532814824381881
    endloop
  endfacet
  facet normal 0.10984111308111891 0.8264385215476812 -0.5522085656517687
    outer loop
      vertex 6.0 0.9238795325112867 -0.3826834323650898
      vertex 6.270598050073098 0.7071067811865476 -0.6532814824381881
      vertex 6.0 0.7071067811865476 -0.7071067811865475
    endloop
  endfacet
  facet normal 0.16317295173655602 0.5481241919387722 -0.8203258243119301
    outer loop
      vertex 6.0 0.7071067811865476 -0.7071067811865475
      vertex 6.270598050073098 0.7071067811865476 -0.6532814824381881
      vertex 6.353553390593274 0.38268343236508984 -0.8535533905932736
    endloop
  endfacet
  facet normal 0.16317295173655602 0.5481241919387722 -0.8203258243119301
    outer loop
      vertex 6.0 0.7071067811865476 -0.7071067811865475
      vertex 6.353553390593274 0.38268343236508984 -0.8535533905932736
      vertex 6.0 0.38268343236508984 -0.9238795325112867
    endloop
  endfacet
  facet normal 0.191480453955323 0.19148045395532265 -0.9626372481397794
    outer loop
      vertex 6.0 0.38268343236508984 -0.9238795325112867
      vertex 6.353553390593274 0.38268343236508984 -0.8535533905932736
      vertex 6.38268343236509 6.123233995736766E-17 -0.9238795325112866
    endloop
  endfacet
  facet normal 0.191480453955323 0.19148045395532265 -0.9626372481397794
    outer loop
      vertex 6.0 0.38268343236508984 -0.9238795325112867
      vertex 6.38268343236509 6.123233995736766E-17 -0.9238795325112866
      vertex 6.0 6.123233995736766E-17 -1.0
    endloop
  endfacet
  facet normal 0.19148045395532318 -0.19148045395532268 -0.9626372481397792
    outer loop
      vertex 6.0 6.123233995736766E-17 -1.0
      vertex 6.38268343236509 6.123233995736766E-17 -0.9238795325112866
      vertex 6.353553390593274 -0.3826834323650897 -0.8535533905932736
    endloop
  endfacet
  facet normal 0.19148045395532318 -0.19148045395532268 -0.9626372481397792
    outer loop
      vertex 6.0 6.123233995736766E-17 -1.0
      vertex 6.353553390593274 -0.3826834323650897 -0.8535533905932736
      vertex 6.0 -0.3826834323650897 -0.9238795325112867
    endloop
  endfacet
  facet normal 0.16317295173655572 -0.5481241919387716 -0.8203258243119306
    outer loop
      vertex 6.0 -0.3826834323650897 -0.9238795325112867
      vertex 6.353553390593274 -0.3826834323650897 -0.8535533905932736
      vertex 6.270598050073099 -0.7071067811865475 -0.6532814824381882
    endloop
  endfacet
  facet normal 0.16317295173655572 -0.5481241919387716 -0.8203258243119306
    outer loop
      vertex 6.0 -0.3826834323650897 -0.9238795325112867
      vertex 6.270598050073099 -0.7071067811865475 -0.6532814824381882
      vertex 6.0 -0.7071067811865475 -0.7071067811865476
    endloop
  endfacet
  facet normal 0.10984111308111867 -0.8264385215476812 -0.5522085656517689
    outer loop
      vertex 6.0 -0.7071067811865475 -0.7071067811865476
      vertex 6.270598050073099 -0.7071067811865475 -0.6532814824381882
      vertex 6.146446609406726 -0.9238795325112867 -0.35355339059327384
    endloop
  endfacet
  facet normal 0.10984111308111867 -0.8264385215476812 -0.5522085656517689
    outer loop
      vertex 6.0 -0.7071067811865475 -0.7071067811865476
      vertex 6.146446609406726 -0.9238795325112867 -0.35355339059327384
      vertex 6.0 -0.9238795325112867 -0.3826834323650899
    endloop
  endfacet
  facet normal 0.03877669195306605 -0.9800476330240646 -0.19494359482964702
    outer loop
      vertex 6.0 -0.9238795325112867 -0.3826834323650899
      vertex 6.146446609406726 -0.9238795325112867 -0.35355339059327384
      vertex 6.0 -1.0 -1.2246467991473532E-16
    endloop
  endfacet
  facet normal 0.11042667602093145 0.9800476330240646 -0.1652651996849211
    outer loop
      vertex 6.0 1.0 0.0
      vertex 6.270598050073098 0.9238795325112867 -0.27059805007309856
      vertex 6.146446609406726 0.9238795325112867 -0.35355339059327373
    endloop
  endfacet
  facet normal 0.31280102548892486 0.8264385215476814 -0.4681398173143998
    outer loop
      vertex 6.146446609406726 0.9238795325112867 -0.35355339059327373
      vertex 6.270598050073098 0.9238795325112867 -0.27059805007309856
      vertex 6.5 0.7071067811865476 -0.5000000000000001
    endloop
  endfacet
  facet normal 0.31280102548892486 0.8264385215476814 -0.4681398173143998
    outer loop
      vertex 6.146446609406726 0.9238795325112867 -0.35355339059327373
      vertex 6.5 0.7071067811865476 -0.5000000000000001
      vertex 6.270598050073098 0.7071067811865476 -0.6532814824381881
    endloop
  endfacet
  facet normal 0.46467725247426594 0.5481241919387713 -0.695438653832555
    outer loop
      vertex 6.270598050073098 0.7071067811865476 -0.6532814824381881
      vertex 6.5 0.7071067811865476 -0.5000000000000001
      vertex 6.653281482438188 0.38268343236508984 -0.6532814824381884
    endloop
  endfacet
  facet normal 0.46467725247426594 0.5481241919387713 -0.695438653832555
    outer loop
      vertex 6.270598050073098 0.7071067811865476 -0.6532814824381881
      vertex 6.653281482438188 0.38268343236508984 -0.6532814824381884
      vertex 6.353553390593274 0.38268343236508984 -0.8535533905932736
    endloop
  endfacet
  facet normal 0.5452901985259083 0.1914804539553228 -0.8160844534388823
    outer loop
      vertex 6.353553390593274 0.38268343236508984 -0.8535533905932736
      vertex 6.653281482438188 0.38268343236508984 -0.6532814824381884
      vertex 6.707106781186547 6.123233995736766E-17 -0.7071067811865477
    endloop
  endfacet
  facet normal 0.5452901985259083 0.1914804539553228 -0.8160844534388823
    outer loop
      vertex 6.353553390593274 0.38268343236508984 -0.8535533905932736
      vertex 6.707106781186547 6.123233995736766E-17 -0.7071067811865477
      vertex 6.38268343236509 6.123233995736766E-17 -0.9238795325112866
    endloop
  endfacet
  facet normal 0.5452901985259079 -0.1914804539553227 -0.8160844534388825
    outer loop
      vertex 6.38268343236509 6.123233995736766E-17 -0.9238795325112866
      vertex 6.707106781186547 6.123233995736766E-17 -0.7071067811865477
      vertex 6.653281482438188 -0.3826834323650897 -0.6532814824381884
    endloop
  endfacet
  facet normal 0.5452901985259079 -0.1914804539553227 -0.8160844534388825
    outer loop
      vertex 6.38268343236509 6.123233995736766E-17 -0.9238795325112866
      vertex 6.653281482438188 -0.3826834323650897 -0.6532814824381884
      vertex 6.353553390593274 -0.3826834323650897 -0.8535533905932736
    endloop
  endfacet
  facet normal 0.46467725247426717 -0.5481241919387715 -0.6954386538325541
    outer loop
      vertex 6.353553390593274 -0.3826834323650897 -0.8535533905932736
      vertex 6.653281482438188 -0.3826834323650897 -0.6532814824381884
      vertex 6.5 -0.7071067811865475 -0.5000000000000001
    endloop
  endfacet
  facet normal 0.46467725247426717 -0.5481241919387715 -0.6954386538325541
    outer loop
      vertex 6.353553390593274 -0.3826834323650897 -0.8535533905932736
      vertex 6.5 -0.7071067811865475 -0.5000000000000001
      vertex 6.270598050073099 -0.7071067811865475 -0.6532814824381882
    endloop
  endfacet
  facet normal 0.31280102548892535 -0.8264385215476813 -0.4681398173143996
    outer loop
      vertex 6.270598050073099 -0.7071067811865475 -0.6532814824381882
      vertex 6.5 -0.7071067811865475 -0.5000000000000001
      vertex 6.270598050073098 -0.9238795325112867 -0.2705980500730986
    endloop
  endfacet
  facet normal 0.31280102548892535 -0.8264385215476813 -0.4681398173143996
    outer loop
      vertex 6.270598050073099 -0.7071067811865475 -0.6532814824381882
      vertex 6.270598050073098 -0.9238795325112867 -0.2705980500730986
      vertex 6.146446609406726 -0.9238795325112867 -0.35355339059327384
    endloop
  endfacet
  facet normal 0.11042667602093148 -0.9800476330240646 -0.165265199684921
    outer loop
      vertex 6.146446609406726 -0.9238795325112867 -0.35355339059327384
      vertex 6.270598050073098 -0.9238795325112867 -0.2705980500730986
      vertex 6.0 -1.0 -1.1314261122877003E-16
    endloop
  endfacet
  facet normal 0.1652651996849206 0.9800476330240646 -0.11042667602093191
    outer loop
      vertex 6.0 1.0 0.0
      vertex 6.353553390593274 0.9238795325112867 -0.1464466094067265
      vertex 6.270598050073098 0.9238795325112867 -0.27059805007309856
    endloop
  endfacet
  facet normal 0.46813981731439946 0.8264385215476807 -0.312801025488927
    outer loop
      vertex 6.270598050073098 0.9238795325112867 -0.27059805007309856
      vertex 6.353553390593274 0.9238795325112867 -0.1464466094067265
      vertex 6.653281482438188 0.7071067811865476 -0.2705980500730989
    endloop
  endfacet
  facet normal 0.46813981731439946 0.8264385215476807 -0.312801025488927
    outer loop
      vertex 6.270598050073098 0.9238795325112867 -0.27059805007309856
      vertex 6.653281482438188 0.7071067811865476 -0.2705980500730989
      vertex 6.5 0.7071067811865476 -0.5000000000000001
    endloop
  endfacet
  facet normal 0.6954386538325545 0.5481241919387717 -0.4646772524742664
    outer loop
      vertex 6.5 0.7071067811865476 -0.5000000000000001
      vertex 6.653281482438188 0.7071067811865476 -0.2705980500730989
      vertex 6.853553390593273 0.38268343236508984 -0.35355339059327434
    endloop
  endfacet
  facet normal 0.6954386538325545 0.5481241919387717 -0.4646772524742664
    outer loop
      vertex 6.5 0.7071067811865476 -0.5000000000000001
      vertex 6.853553390593273 0.38268343236508984 -0.35355339059327434
      vertex 6.653281482438188 0.38268343236508984 -0.6532814824381884
    endloop
  endfacet
  facet normal 0.8160844534388824 0.19148045395532287 -0.5452901985259081
    outer loop
      vertex 6.653281482438188 0.38268343236508984 -0.6532814824381884
      vertex 6.853553390593273 0.38268343236508984 -0.35355339059327434
      vertex 6.923879532511286 6.123233995736766E-17 -0.3826834323650904
    endloop
  endfacet
  facet normal 0.8160844534388824 0.19148045395532287 -0.5452901985259081
    outer loop
      vertex 6.653281482438188 0.38268343236508984 -0.6532814824381884
      vertex 6.923879532511286 6.123233995736766E-17 -0.3826834323650904
      vertex 6.707106781186547 6.123233995736766E-17 -0.7071067811865477
    endloop
  endfacet
  facet normal 0.8160844534388823 -0.19148045395532284 -0.5452901985259082
    outer loop
      vertex 6.707106781186547 6.123233995736766E-17 -0.7071067811865477
      vertex 6.923879532511286 6.123233995736766E-17 -0.3826834323650904
      vertex 6.853553390593273 -0.3826834323650897 -0.35355339059327434
    endloop
  endfacet
  facet normal 0.8160844534388823 -0.19148045395532284 -0.5452901985259082
    outer loop
      vertex 6.707106781186547 6.123233995736766E-17 -0.7071067811865477
      vertex 6.853553390593273 -0.3826834323650897 -0.35355339059327434
      vertex 6.653281482438188 -0.3826834323650897 -0.6532814824381884
    endloop
  endfacet
  facet normal 0.6954386538325542 -0.5481241919387716 -0.464677252474267
    outer loop
      vertex 6.653281482438188 -0.3826834323650897 -0.6532814824381884
      vertex 6.853553390593273 -0.3826834323650897 -0.35355339059327434
      vertex 6.653281482438188 -0.7071067811865475 -0.27059805007309895
    endloop
  endfacet
  facet normal 0.6954386538325542 -0.5481241919387716 -0.464677252474267
    outer loop
      vertex 6.653281482438188 -0.3826834323650897 -0.6532814824381884
      vertex 6.653281482438188 -0.7071067811865475 -0.27059805007309895
      vertex 6.5 -0.7071067811865475 -0.5000000000000001
    endloop
  endfacet
  facet normal 0.4681398173144006 -0.8264385215476809 -0.3128010254889252
    outer loop
      vertex 6.5 -0.7071067811865475 -0.5000000000000001
      vertex 6.653281482438188 -0.7071067811865475 -0.27059805007309895
      vertex 6.353553390593274 -0.9238795325112867 -0.14644660940672652
    endloop
  endfacet
  facet normal 0.4681398173144006 -0.8264385215476809 -0.3128010254889252
    outer loop
      vertex 6.5 -0.7071067811865475 -0.5000000000000001
      vertex 6.353553390593274 -0.9238795325112867 -0.14644660940672652
      vertex 6.270598050073098 -0.9238795325112867 -0.2705980500730986
    endloop
  endfacet
  facet normal 0.1652651996849206 -0.9800476330240646 -0.11042667602093195
    outer loop
      vertex 6.270598050073098 -0.9238795325112867 -0.2705980500730986
      vertex 6.353553390593274 -0.9238795325112867 -0.14644660940672652
      vertex 6.0 -1.0 -8.659560562354935E-17
    endloop
  endfacet
  facet normal 0.19494359482964713 0.9800476330240646 -0.03877669195306552
    outer loop
      vertex 6.0 1.0 0.0
      vertex 6.38268343236509 0.9238795325112867 -9.373040810652597E-17
      vertex 6.353553390593274 0.9238795325112867 -0.1464466094067265
    endloop
  endfacet
  facet normal 0.5522085656517681 0.8264385215476819 -0.10984111308111706
    outer loop
      vertex 6.353553390593274 0.9238795325112867 -0.1464466094067265
      vertex 6.38268343236509 0.9238795325112867 -9.373040810652597E-17
      vertex 6.707106781186548 0.7071067811865476 -1.7319121124709863E-16
    endloop
  endfacet
  facet normal 0.5522085656517681 0.8264385215476819 -0.10984111308111706
    outer loop
      vertex 6.353553390593274 0.9238795325112867 -0.1464466094067265
      vertex 6.707106781186548 0.7071067811865476 -1.7319121124709863E-16
      vertex 6.653281482438188 0.7071067811865476 -0.2705980500730989
    endloop
  endfacet
  facet normal 0.8203258243119305 0.5481241919387714 -0.16317295173655777
    outer loop
      vertex 6.653281482438188 0.7071067811865476 -0.2705980500730989
      vertex 6.707106781186548 0.7071067811865476 -1.7319121124709863E-16
      vertex 6.923879532511287 0.38268343236508984 -2.2628522245754005E-16
    endloop
  endfacet
  facet normal 0.8203258243119305 0.5481241919387714 -0.16317295173655777
    outer loop
      vertex 6.653281482438188 0.7071067811865476 -0.2705980500730989
      vertex 6.923879532511287 0.38268343236508984 -2.2628522245754005E-16
      vertex 6.853553390593273 0.38268343236508984 -0.35355339059327434
    endloop
  endfacet
  facet normal 0.962637248139779 0.1914804539553222 -0.191480453955325
    outer loop
      vertex 6.853553390593273 0.38268343236508984 -0.35355339059327434
      vertex 6.923879532511287 0.38268343236508984 -2.2628522245754005E-16
      vertex 7.0 6.123233995736766E-17 -2.4492935982947064E-16
    endloop
  endfacet
  facet normal 0.962637248139779 0.1914804539553222 -0.191480453955325
    outer loop
      vertex 6.853553390593273 0.38268343236508984 -0.35355339059327434
      vertex 7.0 6.123233995736766E-17 -2.4492935982947064E-16
      vertex 6.923879532511286 6.123233995736766E-17 -0.3826834323650904
    endloop
  endfacet
  facet normal 0.9626372481397791 -0.1914804539553222 -0.19148045395532426
    outer loop
      vertex 6.923879532511286 6.123233995736766E-17 -0.3826834323650904
      vertex 7.0 6.123233995736766E-17 -2.4492935982947064E-16
      vertex 6.923879532511287 -0.3826834323650897 -2.2628522245754005E-16
    endloop
  endfacet
  facet normal 0.9626372481397791 -0.1914804539553222 -0.19148045395532426
    outer loop
      vertex 6.923879532511286 6.123233995736766E-17 -0.3826834323650904
      vertex 6.923879532511287 -0.3826834323650897 -2.2628522245754005E-16
      vertex 6.853553390593273 -0.3826834323650897 -0.35355339059327434
    endloop
  endfacet
  facet normal 0.8203258243119304 -0.5481241919387714 -0.16317295173655744
    outer loop
      vertex 6.853553390593273 -0.3826834323650897 -0.35355339059327434
      vertex 6.923879532511287 -0.3826834323650897 -2.2628522245754005E-16
      vertex 6.707106781186548 -0.7071067811865475 -1.7319121124709868E-16
    endloop
  endfacet
  facet normal 0.8203258243119304 -0.5481241919387714 -0.16317295173655744
    outer loop
      vertex 6.853553390593273 -0.3826834323650897 -0.35355339059327434
      vertex 6.707106781186548 -0.7071067811865475 -1.7319121124709868E-16
      vertex 6.653281482438188 -0.7071067811865475 -0.27059805007309895
    endloop
  endfacet
  facet normal 0.5522085656517682 -0.8264385215476814 -0.10984111308112003
    outer loop
      vertex 6.653281482438188 -0.7071067811865475 -0.27059805007309895
      vertex 6.707106781186548 -0.7071067811865475 -1.7319121124709868E-16
      vertex 6.38268343236509 -0.9238795325112867 -9.3730408106526E-17
    endloop
  endfacet
  facet normal 0.5522085656517682 -0.8264385215476814 -0.10984111308112003
    outer loop
      vertex 6.653281482438188 -0.7071067811865475 -0.27059805007309895
      vertex 6.38268343236509 -0.9238795325112867 -9.3730408106526E-17
      vertex 6.353553390593274 -0.9238795325112867 -0.14644660940672652
    endloop
  endfacet
  facet normal 0.19494359482964713 -0.9800476330240646 -0.038776691953065455
    outer loop
      vertex 6.353553390593274 -0.9238795325112867 -0.14644660940672652
      vertex 6.38268343236509 -0.9238795325112867 -9.3730408106526E-17
      vertex 6.0 -1.0 -4.686520405326306E-17
    endloop
  endfacet
  facet normal -1.0 0.0 0.0
    outer loop
      vertex 0.0 2.0985154911111623 2.400000035762787
      vertex 0.0 12.0 2.400000035762787
      vertex 0.0 12.0 0.0
    endloop
  endfacet
  facet normal -1.0 0.0 0.0
    outer loop
      vertex 0.0 2.0985154911111623 2.400000035762787
      vertex 0.0 12.0 0.0
      vertex 0.0 2.1934742042779476 0.0
    endloop
  endfacet
  facet normal -1.0 0.0 0.0
    outer loop
      vertex 0.0 1.7413590393236336 2.400000035762787
      vertex 0.0 2.0985154911111623 2.400000035762787
      vertex 0.0 2.1934742042779476 0.0
    endloop
  endfacet
  facet normal -1.0 0.0 0.0
    outer loop
      vertex 0.0 1.7413590393236336 2.400000035762787
      vertex 0.0 2.1934742042779476 0.0
      vertex 0.0 2.0117785755472317 0.0
    endloop
  endfacet
  facet normal -1.0 0.0 0.0
    outer loop
      vertex 0.0 1.2713373942355162 2.400000035762787
      vertex 0.0 1.7413590393236336 2.400000035762787
      vertex 0.0 2.0117785755472317 0.0
    endloop
  endfacet
  facet normal -1.0 0.0 0.0
    outer loop
      vertex 0.0 1.2713373942355162 2.400000035762787
      vertex 0.0 2.0117785755472317 0.0
      vertex 0.0 1.67604883048508 0.0
    endloop
  endfacet
  facet normal -1.0 0.0 0.0
    outer loop
      vertex 0.0 0.7600070905546404 2.400000035762787
      vertex 0.0 1.2713373942355162 2.400000035762787
      vertex 0.0 1.67604883048508 0.0
    endloop
  endfacet
  facet normal -1.0 0.0 0.0
    outer loop
      vertex 0.0 0.7600070905546404 2.400000035762787
      vertex 0.0 1.67604883048508 0.0
      vertex 0.0 1.2373967793794802 0.0
    endloop
  endfacet
  facet normal -1.0 0.0 0.0
    outer loop
      vertex 0.0 0.37340564040728613 2.400000035762787
      vertex 0.0 0.7600070905546404 2.400000035762787
      vertex 0.0 0.9238795325112865 1.5761576366430392
    endloop
  endfacet
  facet normal -1.0 0.0 0.0
    outer loop
      vertex 0.0 0.0 2.373054631381224
      vertex 0.0 0.0 2.400000035762787
      vertex 0.0 0.37340564040728613 2.400000035762787
    endloop
  endfacet
  facet normal -1.0 0.0 0.0
    outer loop
      vertex 0.0 0.0 2.373054631381224
      vertex 0.0 0.37340564040728613 2.400000035762787
      vertex 0.0 0.7071067811865475 1.9005809854644968
    endloop
  endfacet
  facet normal -1.0 0.0 0.0
    outer loop
      vertex 0.0 0.0 2.193474204277947
      vertex 0.0 0.0 2.373054631381224
      vertex 0.0 0.38268343236509406 2.117353736789233
    endloop
  endfacet
  facet normal -1.0 0.0 0.0
    outer loop
      vertex 0.0 0.33973611720528574 2.125896488920271
      vertex 0.0 0.38268343236509406 2.117353736789233
      vertex 0.0 0.7071067811865475 1.9005809854644968
    endloop
  endfacet
  facet normal -1.0 0.0 0.0
    outer loop
      vertex 0.0 0.33973611720528574 2.125896488920271
      vertex 0.0 0.7071067811865475 1.9005809854644968
      vertex 0.0 0.9238795325112865 1.5761576366430392
    endloop
  endfacet
  facet normal -1.0 0.0 0.0
    outer loop
      vertex 0.0 0.33973611720528574 2.125896488920271
      vertex 0.0 0.9238795325112865 1.5761576366430392
      vertex 0.0 1.2373967793794802 0.0
    endloop
  endfacet
  facet normal -1.0 0.0 0.0
    outer loop
      vertex 0.0 0.33973611720528574 2.125896488920271
      vertex 0.0 1.2373967793794802 0.0
      vertex 0.0 0.7626032206205198 0.0
    endloop
  endfacet
  facet normal -1.0 0.0 0.0
    outer loop
      vertex 0.0 0.0 0.5718926604522305
      vertex 0.0 0.0 2.193474204277947
      vertex 0.0 0.33973611720528574 2.125896488920271
    endloop
  endfacet
  facet normal -1.0 0.0 0.0
    outer loop
      vertex 0.0 0.0 0.5718926604522305
      vertex 0.0 0.33973611720528574 2.125896488920271
      vertex 0.0 0.7626032206205198 0.0
    endloop
  endfacet
  facet normal -1.0 0.0 0.0
    outer loop
      vertex 0.0 0.0 0.5718926604522305
      vertex 0.0 0.7626032206205198 0.0
      vertex 0.0 0.3821264588970155 0.0
    endloop
  endfacet
  facet normal -1.0 0.0 0.0
    outer loop
      vertex 0.0 0.0 0.0
      vertex 0.0 0.0 0.5718926604522305
      vertex 0.0 0.3821264588970155 0.0
    endloop
  endfacet
  facet normal -0.0 1.0 0.0
    outer loop
      vertex -0.13546369557873206 0.0 2.400000035762787
      vertex 0.0 0.0 2.400000035762787
      vertex 0.0 0.0 2.373054631381224
    endloop
  endfacet
  facet normal -0.0 1.0 0.0
    outer loop
      vertex -1.0382754687678633 0.0 2.400000035762787
      vertex -0.13546369557873206 0.0 2.400000035762787
      vertex 0.0 0.0 2.373054631381224
    endloop
  endfacet
  facet normal -0.0 1.0 0.0
    outer loop
      vertex -1.0382754687678633 0.0 2.400000035762787
      vertex 0.0 0.0 2.373054631381224
      vertex 0.0 0.0 2.193474204277947
    endloop
  endfacet
  facet normal 0.0 1.0 0.0
    outer loop
      vertex -6.0 0.0 0.0
      vertex -6.0 0.0 2.400000035762787
      vertex -1.0382754687678633 0.0 2.400000035762787
    endloop
  endfacet
  facet normal 0.0 1.0 0.0
    outer loop
      vertex -6.0 0.0 0.0
      vertex -1.0382754687678633 0.0 2.400000035762787
      vertex 0.0 0.0 2.193474204277947
    endloop
  endfacet
  facet normal 0.0 1.0 0.0
    outer loop
      vertex -6.0 0.0 0.0
      vertex 0.0 0.0 2.193474204277947
      vertex 0.0 0.0 0.5718926604522305
    endloop
  endfacet
  facet normal 0.0 1.0 0.0
    outer loop
      vertex -6.0 0.0 0.0
      vertex 0.0 0.0 0.5718926604522305
      vertex -2.8750985571484144 0.0 0.0
    endloop
  endfacet
  facet normal 0.0 1.0 0.0
    outer loop
      vertex 0.0 0.0 0.5718926604522305
      vertex 0.0 0.0 0.0
      vertex -2.8750985571484144 0.0 0.0
    endloop
  endfacet
  facet normal -0.7071067811865475 -0.7071067811865477 -4.827491741794017E-17
    outer loop
      vertex 0.0 -6.0 2.400000035762787
      vertex -0.6775829109204274 -5.322417089079573 2.400000035762787
      vertex -0.48636742309140146 -5.5136325769085985 0.0
    endloop
  endfacet
  facet normal -0.7071067811865475 -0.7071067811865477 -4.827491741794017E-17
    outer loop
      vertex 0.0 -6.0 2.400000035762787
      vertex -0.48636742309140146 -5.5136325769085985 0.0
      vertex 0.0 -6.0 0.0
    endloop
  endfacet
  facet normal -0.7071067811865475 -0.7071067811865476 -3.046825687968307E-16
    outer loop
      vertex -0.6775829109204274 -5.322417089079573 2.400000035762787
      vertex -3.254186556950713 -2.7458134430492875 2.400000035762787
      vertex -3.1749825085561434 -2.8250174914438566 0.0
    endloop
  endfacet
  facet normal -0.7071067811865475 -0.7071067811865476 -3.046825687968307E-16
    outer loop
      vertex -0.6775829109204274 -5.322417089079573 2.400000035762787
      vertex -3.1749825085561434 -2.8250174914438566 0.0
      vertex -0.48636742309140146 -5.5136325769085985 0.0
    endloop
  endfacet
  facet normal -0.7071067811865476 -0.7071067811865476 -1.258263328546505E-16
    outer loop
      vertex -3.254186556950713 -2.7458134430492875 2.400000035762787
      vertex -3.6441318687910815 -2.355868131208919 2.400000035762787
      vertex -3.412733058937055 -2.587266941062945 0.0
    endloop
  endfacet
  facet normal -0.7071067811865476 -0.7071067811865476 -1.258263328546505E-16
    outer loop
      vertex -3.254186556950713 -2.7458134430492875 2.400000035762787
      vertex -3.412733058937055 -2.587266941062945 0.0
      vertex -3.1749825085561434 -2.8250174914438566 0.0
    endloop
  endfacet
  facet normal -0.7071067811865478 -0.7071067811865474 -6.750690193160779E-17
    outer loop
      vertex -3.6441318687910815 -2.355868131208919 2.400000035762787
      vertex -4.249815475439746 -1.7501845245602539 2.400000035762787
      vertex -3.8860870667425096 -2.1139129332574904 0.0
    endloop
  endfacet
  facet normal -0.7071067811865478 -0.7071067811865474 -6.750690193160779E-17
    outer loop
      vertex -3.6441318687910815 -2.355868131208919 2.400000035762787
      vertex -3.8860870667425096 -2.1139129332574904 0.0
      vertex -3.412733058937055 -2.587266941062945 0.0
    endloop
  endfacet
  facet normal -0.7071067811865474 -0.7071067811865477 4.4981230133652494E-17
    outer loop
      vertex -4.249815475439746 -1.7501845245602539 2.400000035762787
      vertex -4.654663936348658 -1.3453360636513418 2.400000035762787
      vertex -4.188565113133316 -1.8114348868666843 1.995849938572335
    endloop
  endfacet
  facet normal -0.7071067811865474 -0.7071067811865478 -7.696909585382441E-17
    outer loop
      vertex -4.654663936348658 -1.3453360636513418 2.400000035762787
      vertex -4.96650162185135 -1.0334983781486504 2.400000035762787
      vertex -4.001967013983791 -1.998032986016209 0.7646141210673556
    endloop
  endfacet
  facet normal -0.7071067811865474 -0.7071067811865478 -7.696909585382441E-17
    outer loop
      vertex -4.654663936348658 -1.3453360636513418 2.400000035762787
      vertex -4.001967013983791 -1.998032986016209 0.7646141210673556
      vertex -4.188565113133316 -1.8114348868666843 1.995849938572335
    endloop
  endfacet
  facet normal -0.707106781186547 -0.707106781186548 9.662114723268995E-17
    outer loop
      vertex -4.96650162185135 -1.0334983781486504 2.400000035762787
      vertex -5.040557554493097 -0.9594424455069032 2.400000035762787
      vertex -4.581337428812076 -1.4186625711879242 0.0
    endloop
  endfacet
  facet normal -0.707106781186547 -0.707106781186548 9.662114723268995E-17
    outer loop
      vertex -4.96650162185135 -1.0334983781486504 2.400000035762787
      vertex -4.581337428812076 -1.4186625711879242 0.0
      vertex -3.8860870667425096 -2.1139129332574904 0.0
    endloop
  endfacet
  facet normal -0.707106781186547 -0.707106781186548 9.662114723268995E-17
    outer loop
      vertex -4.96650162185135 -1.0334983781486504 2.400000035762787
      vertex -3.8860870667425096 -2.1139129332574904 0.0
      vertex -4.001967013983791 -1.998032986016209 0.7646141210673556
    endloop
  endfacet
  facet normal -0.7071067811865478 -0.7071067811865474 0.0
    outer loop
      vertex -5.040557554493097 -0.9594424455069032 2.400000035762787
      vertex -6.0 0.0 2.400000035762787
      vertex -6.0 0.0 0.0
    endloop
  endfacet
  facet normal -0.7071067811865478 -0.7071067811865474 0.0
    outer loop
      vertex -5.040557554493097 -0.9594424455069032 2.400000035762787
      vertex -6.0 0.0 0.0
      vertex -5.633397288527274 -0.3666027114727268 0.0
    endloop
  endfacet
  facet normal -0.7071067811865478 -0.7071067811865474 0.0
    outer loop
      vertex -5.040557554493097 -0.9594424455069032 2.400000035762787
      vertex -5.633397288527274 -0.3666027114727268 0.0
      vertex -4.839044138040025 -1.1609558619599756 1.3468401683096107
    endloop
  endfacet
  facet normal -0.7071067811865472 -0.7071067811865478 -1.5693635822189164E-14
    outer loop
      vertex -5.633397288527274 -0.3666027114727268 0.0
      vertex -4.607564864501915 -1.3924351354980844 0.0
      vertex -4.585069628703547 -1.4149303712964534 0.01950541662284482
    endloop
  endfacet
  facet normal -0.7071067811865472 -0.7071067811865478 -1.5693635822189164E-14
    outer loop
      vertex -5.633397288527274 -0.3666027114727268 0.0
      vertex -4.585069628703547 -1.4149303712964534 0.01950541662284482
      vertex -4.839044138040025 -1.1609558619599756 1.3468401683096107
    endloop
  endfacet
  facet normal -0.7071067811865536 -0.7071067811865416 -2.247892159852752E-15
    outer loop
      vertex -4.607564864501915 -1.3924351354980844 0.0
      vertex -4.581337428812076 -1.4186625711879242 0.0
      vertex -4.585069628703547 -1.4149303712964534 0.01950541662284482
    endloop
  endfacet
  facet normal -0.0 0.0 1.0
    outer loop
      vertex -0.6775829109204263 -5.322417089079574 2.400000035762787
      vertex 0.0 -6.0 2.400000035762787
      vertex 0.0 -4.869670662583368 2.400000035762787
    endloop
  endfacet
  facet normal 0.0 0.0 1.0
    outer loop
      vertex -3.254186556950712 -2.745813443049288 2.400000035762787
      vertex -0.6775829109204263 -5.322417089079574 2.400000035762787
      vertex 0.0 -4.869670662583368 2.400000035762787
    endloop
  endfacet
  facet normal 0.0 0.0 1.0
    outer loop
      vertex -3.254186556950712 -2.745813443049288 2.400000035762787
      vertex 0.0 -4.869670662583368 2.400000035762787
      vertex 0.0 -2.098515491111162 2.400000035762787
    endloop
  endfacet
  facet normal -0.0 0.0 1.0
    outer loop
      vertex -3.644131868791081 -2.355868131208919 2.400000035762787
      vertex -3.254186556950712 -2.745813443049288 2.400000035762787
      vertex 0.0 -2.098515491111162 2.400000035762787
    endloop
  endfacet
  facet normal -0.0 0.0 1.0
    outer loop
      vertex -3.644131868791081 -2.355868131208919 2.400000035762787
      vertex 0.0 -2.098515491111162 2.400000035762787
      vertex 0.0 -1.7413590393236338 2.400000035762787
    endloop
  endfacet
  facet normal -0.0 0.0 1.0
    outer loop
      vertex -4.249815475439746 -1.750184524560254 2.400000035762787
      vertex -3.644131868791081 -2.355868131208919 2.400000035762787
      vertex 0.0 -1.7413590393236338 2.400000035762787
    endloop
  endfacet
  facet normal -0.0 0.0 1.0
    outer loop
      vertex -4.249815475439746 -1.750184524560254 2.400000035762787
      vertex 0.0 -1.7413590393236338 2.400000035762787
      vertex 0.0 -1.2713373942355157 2.400000035762787
    endloop
  endfacet
  facet normal 0.0 -0.0 1.0
    outer loop
      vertex 0.0 -0.040326647474799415 2.400000035762787
      vertex 0.0 0.0 2.400000035762787
      vertex -0.1354636955787326 0.0 2.400000035762787
    endloop
  endfacet
  facet normal 0.0 -0.0 1.0
    outer loop
      vertex 0.0 -1.038275468767862 2.400000035762787
      vertex 0.0 -0.040326647474799415 2.400000035762787
      vertex -0.1354636955787326 0.0 2.400000035762787
    endloop
  endfacet
  facet normal 0.0 -0.0 1.0
    outer loop
      vertex 0.0 -1.038275468767862 2.400000035762787
      vertex -0.1354636955787326 0.0 2.400000035762787
      vertex -1.0382754687678628 0.0 2.400000035762787
    endloop
  endfacet
  facet normal 0.0 0.0 1.0
    outer loop
      vertex -2.6028933656209343 -1.564617896853083 2.400000035762787
      vertex 0.0 -1.2713373942355157 2.400000035762787
      vertex 0.0 -1.038275468767862 2.400000035762787
    endloop
  endfacet
  facet normal 0.0 0.0 1.0
    outer loop
      vertex -2.6028933656209343 -1.564617896853083 2.400000035762787
      vertex 0.0 -1.038275468767862 2.400000035762787
      vertex -1.0382754687678628 0.0 2.400000035762787
    endloop
  endfacet
  facet normal 0.0 0.0 1.0
    outer loop
      vertex -4.654663936348658 -1.345336063651342 2.400000035762787
      vertex -4.249815475439746 -1.750184524560254 2.400000035762787
      vertex -2.6028933656209343 -1.564617896853083 2.400000035762787
    endloop
  endfacet
  facet normal 0.0 0.0 1.0
    outer loop
      vertex -4.654663936348658 -1.345336063651342 2.400000035762787
      vertex -2.6028933656209343 -1.564617896853083 2.400000035762787
      vertex -1.4209589011329493 -0.3826834323650894 2.400000035762787
    endloop
  endfacet
  facet normal -0.0 0.0 1.0
    outer loop
      vertex -4.96650162185135 -1.0334983781486506 2.400000035762787
      vertex -4.654663936348658 -1.345336063651342 2.400000035762787
      vertex -2.5107491146846 -0.7071067811865513 2.400000035762787
    endloop
  endfacet
  facet normal -0.0 0.0 1.0
    outer loop
      vertex -5.040557554493097 -0.9594424455069032 2.400000035762787
      vertex -4.96650162185135 -1.0334983781486506 2.400000035762787
      vertex -4.141735428382408 -0.9238795325112875 2.400000035762787
    endloop
  endfacet
  facet normal 0.0 0.0 1.0
    outer loop
      vertex -6.0 0.0 2.400000035762787
      vertex -5.040557554493097 -0.9594424455069032 2.400000035762787
      vertex -4.141735428382408 -0.9238795325112875 2.400000035762787
    endloop
  endfacet
  facet normal 0.0 0.0 1.0
    outer loop
      vertex -6.0 0.0 2.400000035762787
      vertex -4.141735428382408 -0.9238795325112875 2.400000035762787
      vertex -2.5107491146846 -0.7071067811865513 2.400000035762787
    endloop
  endfacet
  facet normal 0.0 0.0 1.0
    outer loop
      vertex -6.0 0.0 2.400000035762787
      vertex -2.5107491146846 -0.7071067811865513 2.400000035762787
      vertex -1.4209589011329493 -0.3826834323650894 2.400000035762787
    endloop
  endfacet
  facet normal 0.0 0.0 1.0
    outer loop
      vertex -6.0 0.0 2.400000035762787
      vertex -1.4209589011329493 -0.3826834323650894 2.400000035762787
      vertex -1.0382754687678628 0.0 2.400000035762787
    endloop
  endfacet
  facet normal -0.0 1.0 0.0
    outer loop
      vertex 12.0 0.0 2.400000035762787
      vertex 18.0 0.0 2.400000035762787
      vertex 18.0 0.0 0.0
    endloop
  endfacet
  facet normal -0.0 1.0 0.0
    outer loop
      vertex 12.0 0.0 2.400000035762787
      vertex 18.0 0.0 0.0
      vertex 12.0 0.0 0.0
    endloop
  endfacet
  facet normal 1.0 0.0 -0.0
    outer loop
      vertex 12.0 12.0 0.0
      vertex 12.0 12.0 2.400000035762787
      vertex 12.0 0.0 2.400000035762787
    endloop
  endfacet
  facet normal 1.0 0.0 -0.0
    outer loop
      vertex 12.0 12.0 0.0
      vertex 12.0 0.0 2.400000035762787
      vertex 12.0 0.0 0.0
    endloop
  endfacet
  facet normal 0.0 1.0 0.0
    outer loop
      vertex 0.0 12.0 0.0
      vertex 0.0 12.0 2.400000035762787
      vertex 12.0 12.0 2.400000035762787
    endloop
  endfacet
  facet normal 0.0 1.0 0.0
    outer loop
      vertex 0.0 12.0 0.0
      vertex 12.0 12.0 2.400000035762787
      vertex 12.0 12.0 0.0
    endloop
  endfacet
  facet normal -0.0 0.0 1.0
    outer loop
      vertex 0.0 12.0 2.400000035762787
      vertex 12.0 0.0 2.400000035762787
      vertex 12.0 12.0 2.400000035762787
    endloop
  endfacet
  facet normal 0.0 0.0 1.0
    outer loop
      vertex 0.0 12.0 2.400000035762787
      vertex 0.0 2.0985154911111614 2.400000035762787
      vertex 10.54994980330101 0.0 2.400000035762787
    endloop
  endfacet
  facet normal 0.0 0.0 1.0
    outer loop
      vertex 0.0 12.0 2.400000035762787
      vertex 10.54994980330101 0.0 2.400000035762787
      vertex 12.0 0.0 2.400000035762787
    endloop
  endfacet
  facet normal 0.0 -0.0 1.0
    outer loop
      vertex 7.287977175905343 0.0 2.400000035762787
      vertex 10.54994980330101 0.0 2.400000035762787
      vertex 5.905293743540258 0.9238795325112855 2.400000035762787
    endloop
  endfacet
  facet normal 0.0 -0.0 1.0
    outer loop
      vertex 6.70219073827843 0.0 2.400000035762787
      vertex 7.287977175905343 0.0 2.400000035762787
      vertex 6.229717092361692 0.7071067811865621 2.400000035762787
    endloop
  endfacet
  facet normal 0.0 -0.0 1.0
    outer loop
      vertex 6.5226103111751605 0.0 2.400000035762787
      vertex 6.70219073827843 0.0 2.400000035762787
      vertex 6.44648984368645 0.3826834323650773 2.400000035762787
    endloop
  endfacet
  facet normal 0.0 0.0 1.0
    outer loop
      vertex 0.0 2.0985154911111614 2.400000035762787
      vertex 0.0 1.7413590393236338 2.400000035762787
      vertex 6.241963892121134 0.6887781500923713 2.400000035762787
    endloop
  endfacet
  facet normal 0.0 0.0 1.0
    outer loop
      vertex 0.0 2.0985154911111614 2.400000035762787
      vertex 6.241963892121134 0.6887781500923713 2.400000035762787
      vertex 6.229717092361692 0.7071067811865621 2.400000035762787
    endloop
  endfacet
  facet normal 0.0 0.0 1.0
    outer loop
      vertex 0.0 2.0985154911111614 2.400000035762787
      vertex 6.229717092361692 0.7071067811865621 2.400000035762787
      vertex 5.905293743540258 0.9238795325112855 2.400000035762787
    endloop
  endfacet
  facet normal 0.0 -0.0 1.0
    outer loop
      vertex 6.4787634453901415 0.0 2.400000035762787
      vertex 6.5226103111751605 0.0 2.400000035762787
      vertex 6.44648984368645 0.3826834323650773 2.400000035762787
    endloop
  endfacet
  facet normal 0.0 -0.0 1.0
    outer loop
      vertex 6.4787634453901415 0.0 2.400000035762787
      vertex 6.44648984368645 0.3826834323650773 2.400000035762787
      vertex 6.241963892121134 0.6887781500923713 2.400000035762787
    endloop
  endfacet
  facet normal 0.0 -0.0 1.0
    outer loop
      vertex 6.4787634453901415 0.0 2.400000035762787
      vertex 6.241963892121134 0.6887781500923713 2.400000035762787
      vertex 4.8477771316923 0.923879532511287 2.400000035762787
    endloop
  endfacet
  facet normal 0.0 -0.0 1.0
    outer loop
      vertex 5.787781229102899 0.0 2.400000035762787
      vertex 6.4787634453901415 0.0 2.400000035762787
      vertex 5.230460564057413 0.7071067811865357 2.400000035762787
    endloop
  endfacet
  facet normal 0.0 -0.0 1.0
    outer loop
      vertex 5.575951672201029 0.0 2.400000035762787
      vertex 5.787781229102899 0.0 2.400000035762787
      vertex 5.486161458649392 0.38268343236508967 2.400000035762787
    endloop
  endfacet
  facet normal 0.0 0.0 1.0
    outer loop
      vertex 0.0 1.7413590393236338 2.400000035762787
      vertex 0.0 1.2713373942355164 2.400000035762787
      vertex 5.252180838361118 0.6795489420238197 2.400000035762787
    endloop
  endfacet
  facet normal 0.0 0.0 1.0
    outer loop
      vertex 0.0 1.7413590393236338 2.400000035762787
      vertex 5.252180838361118 0.6795489420238197 2.400000035762787
      vertex 5.230460564057413 0.7071067811865357 2.400000035762787
    endloop
  endfacet
  facet normal 0.0 0.0 1.0
    outer loop
      vertex 0.0 1.7413590393236338 2.400000035762787
      vertex 5.230460564057413 0.7071067811865357 2.400000035762787
      vertex 4.8477771316923 0.923879532511287 2.400000035762787
    endloop
  endfacet
  facet normal 0.0 -0.0 1.0
    outer loop
      vertex 5.5246662831672975 0.0 2.400000035762787
      vertex 5.575951672201029 0.0 2.400000035762787
      vertex 5.486161458649392 0.38268343236508967 2.400000035762787
    endloop
  endfacet
  facet normal 0.0 -0.0 1.0
    outer loop
      vertex 5.5246662831672975 0.0 2.400000035762787
      vertex 5.486161458649392 0.38268343236508967 2.400000035762787
      vertex 5.252180838361118 0.6795489420238197 2.400000035762787
    endloop
  endfacet
  facet normal 0.0 -0.0 1.0
    outer loop
      vertex 5.5246662831672975 0.0 2.400000035762787
      vertex 5.252180838361118 0.6795489420238197 2.400000035762787
      vertex 3.083722767258576 0.9238795325112873 2.400000035762787
    endloop
  endfacet
  facet normal 0.0 -0.0 1.0
    outer loop
      vertex 4.490538316372426 0.0 2.400000035762787
      vertex 5.5246662831672975 0.0 2.400000035762787
      vertex 3.6564489974127703 0.7071067811865509 2.400000035762787
    endloop
  endfacet
  facet normal 0.0 -0.0 1.0
    outer loop
      vertex 4.173512980810211 0.0 2.400000035762787
      vertex 4.490538316372426 0.0 2.400000035762787
      vertex 4.039132429777865 0.38268343236508956 2.400000035762787
    endloop
  endfacet
  facet normal 0.0 0.0 1.0
    outer loop
      vertex 0.0 1.2713373942355164 2.400000035762787
      vertex 0.0 0.7600070905546402 2.400000035762787
      vertex 3.7700001343197735 0.61084277553002 2.400000035762787
    endloop
  endfacet
  facet normal 0.0 0.0 1.0
    outer loop
      vertex 0.0 1.2713373942355164 2.400000035762787
      vertex 3.7700001343197735 0.61084277553002 2.400000035762787
      vertex 3.6564489974127703 0.7071067811865509 2.400000035762787
    endloop
  endfacet
  facet normal 0.0 0.0 1.0
    outer loop
      vertex 0.0 1.2713373942355164 2.400000035762787
      vertex 3.6564489974127703 0.7071067811865509 2.400000035762787
      vertex 3.083722767258576 0.9238795325112873 2.400000035762787
    endloop
  endfacet
  facet normal 0.0 0.0 1.0
    outer loop
      vertex 0.0 0.7600070905546402 2.400000035762787
      vertex 0.0 0.37340564040728597 2.400000035762787
      vertex 2.809483596254719 0.0 2.400000035762787
    endloop
  endfacet
  facet normal 0.0 0.0 1.0
    outer loop
      vertex 0.0 0.7600070905546402 2.400000035762787
      vertex 2.809483596254719 0.0 2.400000035762787
      vertex 4.173512980810211 0.0 2.400000035762787
    endloop
  endfacet
  facet normal 0.0 0.0 1.0
    outer loop
      vertex 0.0 0.7600070905546402 2.400000035762787
      vertex 4.173512980810211 0.0 2.400000035762787
      vertex 4.039132429777865 0.38268343236508956 2.400000035762787
    endloop
  endfacet
  facet normal 0.0 0.0 1.0
    outer loop
      vertex 0.0 0.7600070905546402 2.400000035762787
      vertex 4.039132429777865 0.38268343236508956 2.400000035762787
      vertex 3.7700001343197735 0.61084277553002 2.400000035762787
    endloop
  endfacet
  facet normal 0.0 0.0 1.0
    outer loop
      vertex 0.0 0.37340564040728597 2.400000035762787
      vertex 0.0 0.0 2.400000035762787
      vertex 2.809483596254719 0.0 2.400000035762787
    endloop
  endfacet
  facet normal -0.7071067811865476 -0.7071067811865476 0.0
    outer loop
      vertex 6.0 -12.0 0.0
      vertex 6.0 -12.0 2.400000035762787
      vertex 4.444975506045173 -10.444975506045173 2.400000035762787
    endloop
  endfacet
  facet normal -0.7071067811865476 -0.7071067811865476 0.0
    outer loop
      vertex 6.0 -12.0 0.0
      vertex 4.444975506045173 -10.444975506045173 2.400000035762787
      vertex 4.843161146475443 -10.843161146475442 0.0
    endloop
  endfacet
  facet normal -0.7071067811865476 -0.7071067811865476 0.0
    outer loop
      vertex 4.444975506045173 -10.444975506045173 2.400000035762787
      vertex 1.6144067844686845 -7.6144067844686845 2.400000035762787
      vertex 1.9005809854644984 -7.900580985464498 0.0
    endloop
  endfacet
  facet normal -0.7071067811865476 -0.7071067811865476 0.0
    outer loop
      vertex 4.444975506045173 -10.444975506045173 2.400000035762787
      vertex 1.9005809854644984 -7.900580985464498 0.0
      vertex 4.843161146475443 -10.843161146475442 0.0
    endloop
  endfacet
  facet normal -0.7071067811865476 -0.7071067811865476 0.0
    outer loop
      vertex 1.6144067844686845 -7.6144067844686845 2.400000035762787
      vertex 0.0 -6.0 2.400000035762787
      vertex 0.0 -6.0 0.0
    endloop
  endfacet
  facet normal -0.7071067811865476 -0.7071067811865476 0.0
    outer loop
      vertex 1.6144067844686845 -7.6144067844686845 2.400000035762787
      vertex 0.0 -6.0 0.0
      vertex 1.9005809854644984 -7.900580985464498 0.0
    endloop
  endfacet
  facet normal 0.7071067811865478 -0.7071067811865474 0.0
    outer loop
      vertex 18.0 0.0 0.0
      vertex 18.0 0.0 2.400000035762787
      vertex 16.763957098080873 -1.2360429019191281 2.400000035762787
    endloop
  endfacet
  facet normal 0.7071067811865478 -0.7071067811865474 0.0
    outer loop
      vertex 18.0 0.0 0.0
      vertex 16.763957098080873 -1.2360429019191281 2.400000035762787
      vertex 16.843161146475442 -1.1568388535245582 0.0
    endloop
  endfacet
  facet normal 0.7071067811865476 -0.7071067811865475 -5.140105914841874E-16
    outer loop
      vertex 16.763957098080873 -1.2360429019191281 2.400000035762787
      vertex 13.709365497635465 -4.2906345023645365 2.400000035762787
      vertex 13.900580985464488 -4.099419014535512 0.0
    endloop
  endfacet
  facet normal 0.7071067811865476 -0.7071067811865475 -5.140105914841874E-16
    outer loop
      vertex 16.763957098080873 -1.2360429019191281 2.400000035762787
      vertex 13.900580985464488 -4.099419014535512 0.0
      vertex 16.843161146475442 -1.1568388535245582 0.0
    endloop
  endfacet
  facet normal 0.7071067811865476 -0.7071067811865476 -5.271794223433672E-16
    outer loop
      vertex 13.709365497635465 -4.2906345023645365 2.400000035762787
      vertex 11.227458375912796 -6.772541624087205 2.400000035762787
      vertex 11.513632576908613 -6.486367423091387 0.0
    endloop
  endfacet
  facet normal 0.7071067811865476 -0.7071067811865476 -5.271794223433672E-16
    outer loop
      vertex 13.709365497635465 -4.2906345023645365 2.400000035762787
      vertex 11.513632576908613 -6.486367423091387 0.0
      vertex 13.900580985464488 -4.099419014535512 0.0
    endloop
  endfacet
  facet normal 0.7071067811865476 -0.7071067811865476 -4.671848784931198E-16
    outer loop
      vertex 11.227458375912796 -6.772541624087205 2.400000035762787
      vertex 8.426831851013587 -9.573168148986415 2.400000035762787
      vertex 8.825017491443857 -9.174982508556143 0.0
    endloop
  endfacet
  facet normal 0.7071067811865476 -0.7071067811865476 -4.671848784931198E-16
    outer loop
      vertex 11.227458375912796 -6.772541624087205 2.400000035762787
      vertex 8.825017491443857 -9.174982508556143 0.0
      vertex 11.513632576908613 -6.486367423091387 0.0
    endloop
  endfacet
  facet normal 0.7071067811865472 -0.7071067811865478 0.0
    outer loop
      vertex 8.426831851013587 -9.573168148986415 2.400000035762787
      vertex 6.0 -12.0 2.400000035762787
      vertex 6.0 -12.0 0.0
    endloop
  endfacet
  facet normal 0.7071067811865472 -0.7071067811865478 0.0
    outer loop
      vertex 8.426831851013587 -9.573168148986415 2.400000035762787
      vertex 6.0 -12.0 0.0
      vertex 8.825017491443857 -9.174982508556143 0.0
    endloop
  endfacet
  facet normal 0.0 -0.0 1.0
    outer loop
      vertex 16.763957098080873 -1.2360429019191272 2.400000035762787
      vertex 18.0 0.0 2.400000035762787
      vertex 10.549949803301008 0.0 2.400000035762787
    endloop
  endfacet
  facet normal 0.0 -0.0 1.0
    outer loop
      vertex 13.709365497635464 -4.2906345023645365 2.400000035762787
      vertex 16.763957098080873 -1.2360429019191272 2.400000035762787
      vertex 10.549949803301008 0.0 2.400000035762787
    endloop
  endfacet
  facet normal 0.0 -0.0 1.0
    outer loop
      vertex 13.709365497635464 -4.2906345023645365 2.400000035762787
      vertex 10.549949803301008 0.0 2.400000035762787
      vertex 7.287977175905342 0.0 2.400000035762787
    endloop
  endfacet
  facet normal 0.0 -0.0 1.0
    outer loop
      vertex 11.227458375912795 -6.772541624087205 2.400000035762787
      vertex 13.709365497635464 -4.2906345023645365 2.400000035762787
      vertex 7.287977175905342 0.0 2.400000035762787
    endloop
  endfacet
  facet normal 0.0 -0.0 1.0
    outer loop
      vertex 11.227458375912795 -6.772541624087205 2.400000035762787
      vertex 7.287977175905342 0.0 2.400000035762787
      vertex 6.70219073827843 0.0 2.400000035762787
    endloop
  endfacet
  facet normal 0.0 -0.0 1.0
    outer loop
      vertex 8.426831851013587 -9.573168148986413 2.400000035762787
      vertex 11.227458375912795 -6.772541624087205 2.400000035762787
      vertex 6.70219073827843 0.0 2.400000035762787
    endloop
  endfacet
  facet normal 0.0 -0.0 1.0
    outer loop
      vertex 8.426831851013587 -9.573168148986413 2.400000035762787
      vertex 6.70219073827843 0.0 2.400000035762787
      vertex 6.5226103111751605 0.0 2.400000035762787
    endloop
  endfacet
  facet normal -0.0 0.0 1.0
    outer loop
      vertex 4.444975506045174 -10.444975506045175 2.400000035762787
      vertex 6.0 -12.0 2.400000035762787
      vertex 8.426831851013587 -9.573168148986413 2.400000035762787
    endloop
  endfacet
  facet normal -0.0 0.0 1.0
    outer loop
      vertex 4.444975506045174 -10.444975506045175 2.400000035762787
      vertex 8.426831851013587 -9.573168148986413 2.400000035762787
      vertex 6.5226103111751605 0.0 2.400000035762787
    endloop
  endfacet
  facet normal -0.0 0.0 1.0
    outer loop
      vertex 1.6144067844686847 -7.6144067844686845 2.400000035762787
      vertex 4.444975506045174 -10.444975506045175 2.400000035762787
      vertex 6.446489843686448 -0.38268343236508606 2.400000035762787
    endloop
  endfacet
  facet normal -0.0 0.0 1.0
    outer loop
      vertex 0.0 -6.0 2.400000035762787
      vertex 1.6144067844686847 -7.6144067844686845 2.400000035762787
      vertex 6.229717092361706 -0.7071067811865497 2.400000035762787
    endloop
  endfacet
  facet normal -0.0 0.0 1.0
    outer loop
      vertex 0.0 -6.0 2.400000035762787
      vertex 6.229717092361706 -0.7071067811865497 2.400000035762787
      vertex 0.0 -4.869670662583368 2.400000035762787
    endloop
  endfacet
  facet normal -0.0 0.0 1.0
    outer loop
      vertex 0.0 -2.0985154911111628 2.400000035762787
      vertex 0.0 -4.869670662583368 2.400000035762787
      vertex 5.90529374354025 -0.9238795325112874 2.400000035762787
    endloop
  endfacet
  facet normal 0.0 -0.0 1.0
    outer loop
      vertex 6.5181701665496385 -0.022322114426635453 2.400000035762787
      vertex 6.5226103111751605 0.0 2.400000035762787
      vertex 6.4787634453901415 0.0 2.400000035762787
    endloop
  endfacet
  facet normal 0.0 0.0 1.0
    outer loop
      vertex 6.282656089405297 -0.6278779731413796 2.400000035762787
      vertex 6.446489843686448 -0.38268343236508606 2.400000035762787
      vertex 6.5181701665496385 -0.022322114426635453 2.400000035762787
    endloop
  endfacet
  facet normal 0.0 0.0 1.0
    outer loop
      vertex 6.282656089405297 -0.6278779731413796 2.400000035762787
      vertex 6.5181701665496385 -0.022322114426635453 2.400000035762787
      vertex 6.4787634453901415 0.0 2.400000035762787
    endloop
  endfacet
  facet normal 0.0 0.0 1.0
    outer loop
      vertex 6.282656089405297 -0.6278779731413796 2.400000035762787
      vertex 6.4787634453901415 0.0 2.400000035762787
      vertex 5.787781229102898 0.0 2.400000035762787
    endloop
  endfacet
  facet normal 0.0 -0.0 1.0
    outer loop
      vertex 6.229717092361706 -0.7071067811865497 2.400000035762787
      vertex 6.282656089405297 -0.6278779731413796 2.400000035762787
      vertex 5.787781229102898 0.0 2.400000035762787
    endloop
  endfacet
  facet normal 0.0 -0.0 1.0
    outer loop
      vertex 6.229717092361706 -0.7071067811865497 2.400000035762787
      vertex 5.787781229102898 0.0 2.400000035762787
      vertex 5.575951672201028 0.0 2.400000035762787
    endloop
  endfacet
  facet normal 0.0 -0.0 1.0
    outer loop
      vertex 6.229717092361706 -0.7071067811865497 2.400000035762787
      vertex 5.575951672201028 0.0 2.400000035762787
      vertex 5.797743927495188 -0.9452725210320576 2.400000035762787
    endloop
  endfacet
  facet normal 0.0 -0.0 1.0
    outer loop
      vertex 6.229717092361706 -0.7071067811865497 2.400000035762787
      vertex 5.797743927495188 -0.9452725210320576 2.400000035762787
      vertex 5.90529374354025 -0.9238795325112874 2.400000035762787
    endloop
  endfacet
  facet normal 0.0 0.0 1.0
    outer loop
      vertex 5.575951672201028 0.0 2.400000035762787
      vertex 5.332443163765766 -1.03782659748904 2.400000035762787
      vertex 5.797743927495188 -0.9452725210320576 2.400000035762787
    endloop
  endfacet
  facet normal 0.0 0.0 1.0
    outer loop
      vertex 4.902371736859458 -1.1233731231573212 2.400000035762787
      vertex 5.332443163765766 -1.03782659748904 2.400000035762787
      vertex 5.486161458649391 -0.38268343236508695 2.400000035762787
    endloop
  endfacet
  facet normal 0.0 0.0 1.0
    outer loop
      vertex 4.275453265520377 -1.2480749604454142 2.400000035762787
      vertex 4.902371736859458 -1.1233731231573212 2.400000035762787
      vertex 5.230460564057403 -0.7071067811865445 2.400000035762787
    endloop
  endfacet
  facet normal -0.0 0.0 1.0
    outer loop
      vertex 0.0 -1.7413590393236336 2.400000035762787
      vertex 0.0 -2.0985154911111628 2.400000035762787
      vertex 4.275453265520377 -1.2480749604454142 2.400000035762787
    endloop
  endfacet
  facet normal -0.0 0.0 1.0
    outer loop
      vertex 0.0 -1.7413590393236336 2.400000035762787
      vertex 4.275453265520377 -1.2480749604454142 2.400000035762787
      vertex 4.84777713169231 -0.9238795325112852 2.400000035762787
    endloop
  endfacet
  facet normal 0.0 0.0 1.0
    outer loop
      vertex 5.575951672201028 0.0 2.400000035762787
      vertex 5.524666283167297 0.0 2.400000035762787
      vertex 5.571768654239079 -0.017827908053730745 2.400000035762787
    endloop
  endfacet
  facet normal 0.0 0.0 1.0
    outer loop
      vertex 5.524666283167297 0.0 2.400000035762787
      vertex 4.490538316372424 0.0 2.400000035762787
      vertex 5.268178602156511 -0.6592516016002026 2.400000035762787
    endloop
  endfacet
  facet normal 0.0 0.0 1.0
    outer loop
      vertex 5.524666283167297 0.0 2.400000035762787
      vertex 5.268178602156511 -0.6592516016002026 2.400000035762787
      vertex 5.486161458649391 -0.38268343236508695 2.400000035762787
    endloop
  endfacet
  facet normal 0.0 0.0 1.0
    outer loop
      vertex 5.524666283167297 0.0 2.400000035762787
      vertex 5.486161458649391 -0.38268343236508695 2.400000035762787
      vertex 5.571768654239079 -0.017827908053730745 2.400000035762787
    endloop
  endfacet
  facet normal 0.0 0.0 1.0
    outer loop
      vertex 4.490538316372424 0.0 2.400000035762787
      vertex 4.1735129808102105 0.0 2.400000035762787
      vertex 4.517494010941232 -0.9795750967514218 2.400000035762787
    endloop
  endfacet
  facet normal 0.0 0.0 1.0
    outer loop
      vertex 4.490538316372424 0.0 2.400000035762787
      vertex 4.517494010941232 -0.9795750967514218 2.400000035762787
      vertex 4.84777713169231 -0.9238795325112852 2.400000035762787
    endloop
  endfacet
  facet normal 0.0 0.0 1.0
    outer loop
      vertex 4.490538316372424 0.0 2.400000035762787
      vertex 4.84777713169231 -0.9238795325112852 2.400000035762787
      vertex 5.230460564057403 -0.7071067811865445 2.400000035762787
    endloop
  endfacet
  facet normal 0.0 0.0 1.0
    outer loop
      vertex 4.490538316372424 0.0 2.400000035762787
      vertex 5.230460564057403 -0.7071067811865445 2.400000035762787
      vertex 5.268178602156511 -0.6592516016002026 2.400000035762787
    endloop
  endfacet
  facet normal 0.0 0.0 1.0
    outer loop
      vertex 4.1735129808102105 0.0 2.400000035762787
      vertex 3.7862302411318134 -1.1028879326459338 2.400000035762787
      vertex 4.517494010941232 -0.9795750967514218 2.400000035762787
    endloop
  endfacet
  facet normal 0.0 0.0 1.0
    outer loop
      vertex 3.0414466255798693 -1.2284806169182776 2.400000035762787
      vertex 3.7862302411318134 -1.1028879326459338 2.400000035762787
      vertex 4.039132429777864 -0.38268343236509283 2.400000035762787
    endloop
  endfacet
  facet normal 0.0 0.0 1.0
    outer loop
      vertex 1.6662645994669618 -1.46037723550139 2.400000035762787
      vertex 3.0414466255798693 -1.2284806169182776 2.400000035762787
      vertex 3.6564489974127823 -0.7071067811865434 2.400000035762787
    endloop
  endfacet
  facet normal 0.0 0.0 1.0
    outer loop
      vertex 0.0 -1.2713373942355155 2.400000035762787
      vertex 0.0 -1.7413590393236336 2.400000035762787
      vertex 1.6662645994669618 -1.46037723550139 2.400000035762787
    endloop
  endfacet
  facet normal 0.0 0.0 1.0
    outer loop
      vertex 0.0 -1.2713373942355155 2.400000035762787
      vertex 1.6662645994669618 -1.46037723550139 2.400000035762787
      vertex 3.0837227672585676 -0.9238795325112874 2.400000035762787
    endloop
  endfacet
  facet normal 0.0 0.0 1.0
    outer loop
      vertex 4.1735129808102105 0.0 2.400000035762787
      vertex 2.8094835962547196 0.0 2.400000035762787
      vertex 4.1126904502192785 -0.1732079128479387 2.400000035762787
    endloop
  endfacet
  facet normal 0.0 0.0 1.0
    outer loop
      vertex 2.8094835962547196 0.0 2.400000035762787
      vertex 0.0 0.0 2.400000035762787
      vertex 0.0 -0.04032664747479917 2.400000035762787
    endloop
  endfacet
  facet normal 0.0 0.0 1.0
    outer loop
      vertex 2.8094835962547196 0.0 2.400000035762787
      vertex 0.0 -0.04032664747479917 2.400000035762787
      vertex 2.999771292368089 -0.9333387485808218 2.400000035762787
    endloop
  endfacet
  facet normal 0.0 0.0 1.0
    outer loop
      vertex 2.8094835962547196 0.0 2.400000035762787
      vertex 2.999771292368089 -0.9333387485808218 2.400000035762787
      vertex 3.0837227672585676 -0.9238795325112874 2.400000035762787
    endloop
  endfacet
  facet normal 0.0 0.0 1.0
    outer loop
      vertex 2.8094835962547196 0.0 2.400000035762787
      vertex 3.0837227672585676 -0.9238795325112874 2.400000035762787
      vertex 3.6564489974127823 -0.7071067811865434 2.400000035762787
    endloop
  endfacet
  facet normal 0.0 0.0 1.0
    outer loop
      vertex 2.8094835962547196 0.0 2.400000035762787
      vertex 3.6564489974127823 -0.7071067811865434 2.400000035762787
      vertex 4.039132429777864 -0.38268343236509283 2.400000035762787
    endloop
  endfacet
  facet normal 0.0 0.0 1.0
    outer loop
      vertex 2.8094835962547196 0.0 2.400000035762787
      vertex 4.039132429777864 -0.38268343236509283 2.400000035762787
      vertex 4.1126904502192785 -0.1732079128479387 2.400000035762787
    endloop
  endfacet
  facet normal 0.0 0.0 1.0
    outer loop
      vertex 0.0 -0.04032664747479917 2.400000035762787
      vertex 0.0 -1.0382754687678615 2.400000035762787
      vertex 0.20946095337417095 -1.2477364221420324 2.400000035762787
    endloop
  endfacet
  facet normal 0.0 0.0 1.0
    outer loop
      vertex 0.0 -0.04032664747479917 2.400000035762787
      vertex 0.20946095337417095 -1.2477364221420324 2.400000035762787
      vertex 2.999771292368089 -0.9333387485808218 2.400000035762787
    endloop
  endfacet
  facet normal 0.0 0.0 1.0
    outer loop
      vertex 0.0 -1.0382754687678615 2.400000035762787
      vertex 0.0 -1.2713373942355155 2.400000035762787
      vertex 0.20946095337417095 -1.2477364221420324 2.400000035762787
    endloop
  endfacet
endsolid v3d.csg
