solid v3d.csg
  facet normal 0.19445640093463867 0.9775985734835635 0.08054649128577204
    outer loop
      vertex 0.0 25.0 0.0
      vertex 6.764951229095459 23.096988677978516 6.764951229095459
      vertex 9.567086219787598 23.096988677978516 -2.3432601091297927E-15
    endloop
  endfacet
  facet normal 0.5414190991470542 0.8102909292371527 0.22426316923379083
    outer loop
      vertex 9.567086219787598 23.096988677978516 -2.3432601091297927E-15
      vertex 6.764951229095459 23.096988677978516 6.764951229095459
      vertex 12.5 17.677669525146484 12.5
    endloop
  endfacet
  facet normal 0.5414191200179398 0.8102909227616342 0.22426314224388103
    outer loop
      vertex 6.764951229095459 23.096988677978516 6.764951229095459
      vertex 12.5 17.677669525146484 12.5
      vertex 17.677669525146484 17.677669525146484 -4.329780434062175E-15
    endloop
  endfacet
  facet normal 0.7861509883004291 0.5252893111291421 0.32563440114295367
    outer loop
      vertex 17.677669525146484 17.677669525146484 -4.329780434062175E-15
      vertex 12.5 17.677669525146484 12.5
      vertex 16.3320369720459 9.567086219787598 16.3320369720459
    endloop
  endfacet
  facet normal 0.7861509775119869 0.525289315219922 0.3256344205896133
    outer loop
      vertex 12.5 17.677669525146484 12.5
      vertex 16.3320369720459 9.567086219787598 16.3320369720459
      vertex 23.096988677978516 9.567086219787598 -5.657130613837078E-15
    endloop
  endfacet
  facet normal 0.9086633246584298 0.180744380477742 0.376380700018487
    outer loop
      vertex 23.096988677978516 9.567086219787598 -5.657130613837078E-15
      vertex 16.3320369720459 9.567086219787598 16.3320369720459
      vertex 17.677669525146484 1.5308084466174516E-15 17.677669525146484
    endloop
  endfacet
  facet normal 0.9086633345109548 0.18074437864194914 0.37638067711396717
    outer loop
      vertex 16.3320369720459 9.567086219787598 16.3320369720459
      vertex 17.677669525146484 1.5308084466174516E-15 17.677669525146484
      vertex 25.0 1.5308084466174516E-15 -6.1232337864698064E-15
    endloop
  endfacet
  facet normal 0.9086633345109548 -0.180744378641949 0.3763806771139672
    outer loop
      vertex 25.0 1.5308084466174516E-15 -6.1232337864698064E-15
      vertex 17.677669525146484 1.5308084466174516E-15 17.677669525146484
      vertex 16.3320369720459 -9.567086219787598 16.3320369720459
    endloop
  endfacet
  facet normal 0.9086633246584298 -0.18074438047774197 0.376380700018487
    outer loop
      vertex 17.677669525146484 1.5308084466174516E-15 17.677669525146484
      vertex 16.3320369720459 -9.567086219787598 16.3320369720459
      vertex 23.096988677978516 -9.567086219787598 -5.657130613837078E-15
    endloop
  endfacet
  facet normal 0.7861509775119869 -0.525289315219922 0.3256344205896133
    outer loop
      vertex 23.096988677978516 -9.567086219787598 -5.657130613837078E-15
      vertex 16.3320369720459 -9.567086219787598 16.3320369720459
      vertex 12.5 -17.677669525146484 12.5
    endloop
  endfacet
  facet normal 0.7861509883004291 -0.5252893111291421 0.32563440114295367
    outer loop
      vertex 16.3320369720459 -9.567086219787598 16.3320369720459
      vertex 12.5 -17.677669525146484 12.5
      vertex 17.677669525146484 -17.677669525146484 -4.329780434062175E-15
    endloop
  endfacet
  facet normal 0.5414191200179398 -0.8102909227616341 0.22426314224388105
    outer loop
      vertex 17.677669525146484 -17.677669525146484 -4.329780434062175E-15
      vertex 12.5 -17.677669525146484 12.5
      vertex 6.764951229095459 -23.096988677978516 6.764951229095459
    endloop
  endfacet
  facet normal 0.5414190991470542 -0.8102909292371527 0.22426316923379083
    outer loop
      vertex 12.5 -17.677669525146484 12.5
      vertex 6.764951229095459 -23.096988677978516 6.764951229095459
      vertex 9.567086219787598 -23.096988677978516 -2.3432601091297927E-15
    endloop
  endfacet
  facet normal 0.19445640093463867 -0.9775985734835635 0.08054649128577204
    outer loop
      vertex 9.567086219787598 -23.096988677978516 -2.3432601091297927E-15
      vertex 6.764951229095459 -23.096988677978516 6.764951229095459
      vertex 2.1648902170310876E-15 -25.0 -2.1648902170310876E-15
    endloop
  endfacet
  facet normal 0.08054649128577207 0.9775985734835635 0.1944564009346386
    outer loop
      vertex 0.0 25.0 0.0
      vertex 5.858150272824482E-16 23.096988677978516 9.567086219787598
      vertex 6.764951229095459 23.096988677978516 6.764951229095459
    endloop
  endfacet
  facet normal 0.22426318416998509 0.8102909010093216 0.5414191352062109
    outer loop
      vertex 6.764951229095459 23.096988677978516 6.764951229095459
      vertex 5.858150272824482E-16 23.096988677978516 9.567086219787598
      vertex 1.0824451085155438E-15 17.677669525146484 17.677669525146484
    endloop
  endfacet
  facet normal 0.22426315032729016 0.8102909074848417 0.5414191395330156
    outer loop
      vertex 5.858150272824482E-16 23.096988677978516 9.567086219787598
      vertex 1.0824451085155438E-15 17.677669525146484 17.677669525146484
      vertex 12.5 17.677669525146484 12.5
    endloop
  endfacet
  facet normal 0.3256343929054737 0.5252893459987252 0.7861509684133927
    outer loop
      vertex 12.5 17.677669525146484 12.5
      vertex 1.0824451085155438E-15 17.677669525146484 17.677669525146484
      vertex 1.4142826534592695E-15 9.567086219787598 23.096988677978516
    endloop
  endfacet
  facet normal 0.3256344142849187 0.5252893419079452 0.7861509622911085
    outer loop
      vertex 1.0824451085155438E-15 17.677669525146484 17.677669525146484
      vertex 1.4142826534592695E-15 9.567086219787598 23.096988677978516
      vertex 16.3320369720459 9.567086219787598 16.3320369720459
    endloop
  endfacet
  facet normal 0.3763807034105899 0.18074433224385855 0.9086633328476897
    outer loop
      vertex 16.3320369720459 9.567086219787598 16.3320369720459
      vertex 1.4142826534592695E-15 9.567086219787598 23.096988677978516
      vertex 1.5308084466174516E-15 1.5308084466174516E-15 25.0
    endloop
  endfacet
  facet normal 0.3763806802478614 0.18074433407965115 0.9086633420768445
    outer loop
      vertex 1.4142826534592695E-15 9.567086219787598 23.096988677978516
      vertex 1.5308084466174516E-15 1.5308084466174516E-15 25.0
      vertex 17.677669525146484 1.5308084466174516E-15 17.677669525146484
    endloop
  endfacet
  facet normal 0.3763806802478615 -0.1807443340796511 0.9086633420768445
    outer loop
      vertex 17.677669525146484 1.5308084466174516E-15 17.677669525146484
      vertex 1.5308084466174516E-15 1.5308084466174516E-15 25.0
      vertex 1.4142826534592695E-15 -9.567086219787598 23.096988677978516
    endloop
  endfacet
  facet normal 0.37638070341058993 -0.1807443322438585 0.9086633328476897
    outer loop
      vertex 1.5308084466174516E-15 1.5308084466174516E-15 25.0
      vertex 1.4142826534592695E-15 -9.567086219787598 23.096988677978516
      vertex 16.3320369720459 -9.567086219787598 16.3320369720459
    endloop
  endfacet
  facet normal 0.3256344142849187 -0.5252893419079452 0.7861509622911085
    outer loop
      vertex 16.3320369720459 -9.567086219787598 16.3320369720459
      vertex 1.4142826534592695E-15 -9.567086219787598 23.096988677978516
      vertex 1.0824451085155438E-15 -17.677669525146484 17.677669525146484
    endloop
  endfacet
  facet normal 0.3256343929054737 -0.5252893459987252 0.7861509684133927
    outer loop
      vertex 1.4142826534592695E-15 -9.567086219787598 23.096988677978516
      vertex 1.0824451085155438E-15 -17.677669525146484 17.677669525146484
      vertex 12.5 -17.677669525146484 12.5
    endloop
  endfacet
  facet normal 0.2242631503272902 -0.8102909074848417 0.5414191395330156
    outer loop
      vertex 12.5 -17.677669525146484 12.5
      vertex 1.0824451085155438E-15 -17.677669525146484 17.677669525146484
      vertex 5.858150272824482E-16 -23.096988677978516 9.567086219787598
    endloop
  endfacet
  facet normal 0.22426318416998506 -0.8102909010093217 0.5414191352062109
    outer loop
      vertex 1.0824451085155438E-15 -17.677669525146484 17.677669525146484
      vertex 5.858150272824482E-16 -23.096988677978516 9.567086219787598
      vertex 6.764951229095459 -23.096988677978516 6.764951229095459
    endloop
  endfacet
  facet normal 0.08054649128577207 -0.9775985734835635 0.1944564009346386
    outer loop
      vertex 6.764951229095459 -23.096988677978516 6.764951229095459
      vertex 5.858150272824482E-16 -23.096988677978516 9.567086219787598
      vertex 2.1648902170310876E-15 -25.0 -2.1648902170310876E-15
    endloop
  endfacet
  facet normal -0.08054649128577207 0.9775985734835635 0.19445640093463865
    outer loop
      vertex 0.0 25.0 0.0
      vertex -6.764951229095459 23.096988677978516 6.764951229095459
      vertex 5.858150272824482E-16 23.096988677978516 9.567086219787598
    endloop
  endfacet
  facet normal -0.22426316923379086 0.8102909292371527 0.5414190991470542
    outer loop
      vertex 5.858150272824482E-16 23.096988677978516 9.567086219787598
      vertex -6.764951229095459 23.096988677978516 6.764951229095459
      vertex -12.5 17.677669525146484 12.5
    endloop
  endfacet
  facet normal -0.22426314224388108 0.8102909227616342 0.5414191200179398
    outer loop
      vertex -6.764951229095459 23.096988677978516 6.764951229095459
      vertex -12.5 17.677669525146484 12.5
      vertex 1.0824451085155438E-15 17.677669525146484 17.677669525146484
    endloop
  endfacet
  facet normal -0.3256344011429537 0.5252893111291421 0.7861509883004291
    outer loop
      vertex 1.0824451085155438E-15 17.677669525146484 17.677669525146484
      vertex -12.5 17.677669525146484 12.5
      vertex -16.3320369720459 9.567086219787598 16.3320369720459
    endloop
  endfacet
  facet normal -0.32563442058961334 0.5252893152199218 0.7861509775119868
    outer loop
      vertex -12.5 17.677669525146484 12.5
      vertex -16.3320369720459 9.567086219787598 16.3320369720459
      vertex 1.4142826534592695E-15 9.567086219787598 23.096988677978516
    endloop
  endfacet
  facet normal -0.3763807000184871 0.18074438047774205 0.9086633246584298
    outer loop
      vertex 1.4142826534592695E-15 9.567086219787598 23.096988677978516
      vertex -16.3320369720459 9.567086219787598 16.3320369720459
      vertex -17.677669525146484 1.5308084466174516E-15 17.677669525146484
    endloop
  endfacet
  facet normal -0.3763806771139673 0.18074437864194912 0.9086633345109548
    outer loop
      vertex -16.3320369720459 9.567086219787598 16.3320369720459
      vertex -17.677669525146484 1.5308084466174516E-15 17.677669525146484
      vertex 1.5308084466174516E-15 1.5308084466174516E-15 25.0
    endloop
  endfacet
  facet normal -0.37638067711396733 -0.18074437864194906 0.9086633345109548
    outer loop
      vertex 1.5308084466174516E-15 1.5308084466174516E-15 25.0
      vertex -17.677669525146484 1.5308084466174516E-15 17.677669525146484
      vertex -16.3320369720459 -9.567086219787598 16.3320369720459
    endloop
  endfacet
  facet normal -0.37638070001848717 -0.180744380477742 0.9086633246584298
    outer loop
      vertex -17.677669525146484 1.5308084466174516E-15 17.677669525146484
      vertex -16.3320369720459 -9.567086219787598 16.3320369720459
      vertex 1.4142826534592695E-15 -9.567086219787598 23.096988677978516
    endloop
  endfacet
  facet normal -0.3256344205896134 -0.5252893152199218 0.7861509775119869
    outer loop
      vertex 1.4142826534592695E-15 -9.567086219787598 23.096988677978516
      vertex -16.3320369720459 -9.567086219787598 16.3320369720459
      vertex -12.5 -17.677669525146484 12.5
    endloop
  endfacet
  facet normal -0.3256344011429537 -0.5252893111291421 0.786150988300429
    outer loop
      vertex -16.3320369720459 -9.567086219787598 16.3320369720459
      vertex -12.5 -17.677669525146484 12.5
      vertex 1.0824451085155438E-15 -17.677669525146484 17.677669525146484
    endloop
  endfacet
  facet normal -0.22426314224388103 -0.8102909227616342 0.5414191200179397
    outer loop
      vertex 1.0824451085155438E-15 -17.677669525146484 17.677669525146484
      vertex -12.5 -17.677669525146484 12.5
      vertex -6.764951229095459 -23.096988677978516 6.764951229095459
    endloop
  endfacet
  facet normal -0.2242631692337909 -0.8102909292371527 0.5414190991470541
    outer loop
      vertex -12.5 -17.677669525146484 12.5
      vertex -6.764951229095459 -23.096988677978516 6.764951229095459
      vertex 5.858150272824482E-16 -23.096988677978516 9.567086219787598
    endloop
  endfacet
  facet normal -0.08054649128577204 -0.9775985734835635 0.19445640093463862
    outer loop
      vertex 5.858150272824482E-16 -23.096988677978516 9.567086219787598
      vertex -6.764951229095459 -23.096988677978516 6.764951229095459
      vertex 2.1648902170310876E-15 -25.0 -2.1648902170310876E-15
    endloop
  endfacet
  facet normal -0.19445640093463865 0.9775985734835635 0.08054649128577208
    outer loop
      vertex 0.0 25.0 0.0
      vertex -9.567086219787598 23.096988677978516 1.1716300545648963E-15
      vertex -6.764951229095459 23.096988677978516 6.764951229095459
    endloop
  endfacet
  facet normal -0.5414191352062109 0.8102909010093216 0.22426318416998509
    outer loop
      vertex -6.764951229095459 23.096988677978516 6.764951229095459
      vertex -9.567086219787598 23.096988677978516 1.1716300545648963E-15
      vertex -17.677669525146484 17.677669525146484 2.1648902170310876E-15
    endloop
  endfacet
  facet normal -0.5414191395330157 0.8102909074848417 0.22426315032729022
    outer loop
      vertex -9.567086219787598 23.096988677978516 1.1716300545648963E-15
      vertex -17.677669525146484 17.677669525146484 2.1648902170310876E-15
      vertex -12.5 17.677669525146484 12.5
    endloop
  endfacet
  facet normal -0.7861509684133927 0.5252893459987252 0.3256343929054737
    outer loop
      vertex -12.5 17.677669525146484 12.5
      vertex -17.677669525146484 17.677669525146484 2.1648902170310876E-15
      vertex -23.096988677978516 9.567086219787598 2.828565306918539E-15
    endloop
  endfacet
  facet normal -0.7861509622911084 0.5252893419079452 0.32563441428491874
    outer loop
      vertex -17.677669525146484 17.677669525146484 2.1648902170310876E-15
      vertex -23.096988677978516 9.567086219787598 2.828565306918539E-15
      vertex -16.3320369720459 9.567086219787598 16.3320369720459
    endloop
  endfacet
  facet normal -0.9086633328476897 0.1807443322438586 0.37638070341058993
    outer loop
      vertex -16.3320369720459 9.567086219787598 16.3320369720459
      vertex -23.096988677978516 9.567086219787598 2.828565306918539E-15
      vertex -25.0 1.5308084466174516E-15 3.0616168932349032E-15
    endloop
  endfacet
  facet normal -0.9086633420768445 0.18074433407965115 0.3763806802478615
    outer loop
      vertex -23.096988677978516 9.567086219787598 2.828565306918539E-15
      vertex -25.0 1.5308084466174516E-15 3.0616168932349032E-15
      vertex -17.677669525146484 1.5308084466174516E-15 17.677669525146484
    endloop
  endfacet
  facet normal -0.9086633420768445 -0.18074433407965104 0.37638068024786153
    outer loop
      vertex -17.677669525146484 1.5308084466174516E-15 17.677669525146484
      vertex -25.0 1.5308084466174516E-15 3.0616168932349032E-15
      vertex -23.096988677978516 -9.567086219787598 2.828565306918539E-15
    endloop
  endfacet
  facet normal -0.9086633328476897 -0.18074433224385852 0.37638070341059
    outer loop
      vertex -25.0 1.5308084466174516E-15 3.0616168932349032E-15
      vertex -23.096988677978516 -9.567086219787598 2.828565306918539E-15
      vertex -16.3320369720459 -9.567086219787598 16.3320369720459
    endloop
  endfacet
  facet normal -0.7861509622911085 -0.5252893419079452 0.3256344142849188
    outer loop
      vertex -16.3320369720459 -9.567086219787598 16.3320369720459
      vertex -23.096988677978516 -9.567086219787598 2.828565306918539E-15
      vertex -17.677669525146484 -17.677669525146484 2.1648902170310876E-15
    endloop
  endfacet
  facet normal -0.7861509684133927 -0.5252893459987252 0.3256343929054737
    outer loop
      vertex -23.096988677978516 -9.567086219787598 2.828565306918539E-15
      vertex -17.677669525146484 -17.677669525146484 2.1648902170310876E-15
      vertex -12.5 -17.677669525146484 12.5
    endloop
  endfacet
  facet normal -0.5414191395330157 -0.8102909074848417 0.22426315032729024
    outer loop
      vertex -12.5 -17.677669525146484 12.5
      vertex -17.677669525146484 -17.677669525146484 2.1648902170310876E-15
      vertex -9.567086219787598 -23.096988677978516 1.1716300545648963E-15
    endloop
  endfacet
  facet normal -0.5414191352062109 -0.8102909010093216 0.22426318416998503
    outer loop
      vertex -17.677669525146484 -17.677669525146484 2.1648902170310876E-15
      vertex -9.567086219787598 -23.096988677978516 1.1716300545648963E-15
      vertex -6.764951229095459 -23.096988677978516 6.764951229095459
    endloop
  endfacet
  facet normal -0.19445640093463856 -0.9775985734835635 0.08054649128577204
    outer loop
      vertex -6.764951229095459 -23.096988677978516 6.764951229095459
      vertex -9.567086219787598 -23.096988677978516 1.1716300545648963E-15
      vertex 2.1648902170310876E-15 -25.0 -2.1648902170310876E-15
    endloop
  endfacet
  facet normal -0.19445640093463862 0.9775985734835635 -0.08054649128577204
    outer loop
      vertex 0.0 25.0 0.0
      vertex -6.764951229095459 23.096988677978516 -6.764951229095459
      vertex -9.567086219787598 23.096988677978516 1.1716300545648963E-15
    endloop
  endfacet
  facet normal -0.5414190991470541 0.8102909292371528 -0.22426316923379083
    outer loop
      vertex -9.567086219787598 23.096988677978516 1.1716300545648963E-15
      vertex -6.764951229095459 23.096988677978516 -6.764951229095459
      vertex -12.5 17.677669525146484 -12.5
    endloop
  endfacet
  facet normal -0.5414191200179398 0.8102909227616342 -0.22426314224388108
    outer loop
      vertex -6.764951229095459 23.096988677978516 -6.764951229095459
      vertex -12.5 17.677669525146484 -12.5
      vertex -17.677669525146484 17.677669525146484 2.1648902170310876E-15
    endloop
  endfacet
  facet normal -0.786150988300429 0.5252893111291421 -0.32563440114295367
    outer loop
      vertex -17.677669525146484 17.677669525146484 2.1648902170310876E-15
      vertex -12.5 17.677669525146484 -12.5
      vertex -16.3320369720459 9.567086219787598 -16.3320369720459
    endloop
  endfacet
  facet normal -0.7861509775119868 0.5252893152199218 -0.3256344205896133
    outer loop
      vertex -12.5 17.677669525146484 -12.5
      vertex -16.3320369720459 9.567086219787598 -16.3320369720459
      vertex -23.096988677978516 9.567086219787598 2.828565306918539E-15
    endloop
  endfacet
  facet normal -0.9086633246584298 0.1807443804777421 -0.37638070001848706
    outer loop
      vertex -23.096988677978516 9.567086219787598 2.828565306918539E-15
      vertex -16.3320369720459 9.567086219787598 -16.3320369720459
      vertex -17.677669525146484 1.5308084466174516E-15 -17.677669525146484
    endloop
  endfacet
  facet normal -0.9086633345109548 0.1807443786419491 -0.3763806771139672
    outer loop
      vertex -16.3320369720459 9.567086219787598 -16.3320369720459
      vertex -17.677669525146484 1.5308084466174516E-15 -17.677669525146484
      vertex -25.0 1.5308084466174516E-15 3.0616168932349032E-15
    endloop
  endfacet
  facet normal -0.9086633345109548 -0.18074437864194903 -0.3763806771139673
    outer loop
      vertex -25.0 1.5308084466174516E-15 3.0616168932349032E-15
      vertex -17.677669525146484 1.5308084466174516E-15 -17.677669525146484
      vertex -16.3320369720459 -9.567086219787598 -16.3320369720459
    endloop
  endfacet
  facet normal -0.9086633246584298 -0.180744380477742 -0.3763807000184871
    outer loop
      vertex -17.677669525146484 1.5308084466174516E-15 -17.677669525146484
      vertex -16.3320369720459 -9.567086219787598 -16.3320369720459
      vertex -23.096988677978516 -9.567086219787598 2.828565306918539E-15
    endloop
  endfacet
  facet normal -0.7861509775119869 -0.5252893152199218 -0.32563442058961334
    outer loop
      vertex -23.096988677978516 -9.567086219787598 2.828565306918539E-15
      vertex -16.3320369720459 -9.567086219787598 -16.3320369720459
      vertex -12.5 -17.677669525146484 -12.5
    endloop
  endfacet
  facet normal -0.7861509883004291 -0.5252893111291421 -0.32563440114295367
    outer loop
      vertex -16.3320369720459 -9.567086219787598 -16.3320369720459
      vertex -12.5 -17.677669525146484 -12.5
      vertex -17.677669525146484 -17.677669525146484 2.1648902170310876E-15
    endloop
  endfacet
  facet normal -0.5414191200179397 -0.8102909227616342 -0.22426314224388103
    outer loop
      vertex -17.677669525146484 -17.677669525146484 2.1648902170310876E-15
      vertex -12.5 -17.677669525146484 -12.5
      vertex -6.764951229095459 -23.096988677978516 -6.764951229095459
    endloop
  endfacet
  facet normal -0.5414190991470542 -0.8102909292371527 -0.22426316923379083
    outer loop
      vertex -12.5 -17.677669525146484 -12.5
      vertex -6.764951229095459 -23.096988677978516 -6.764951229095459
      vertex -9.567086219787598 -23.096988677978516 1.1716300545648963E-15
    endloop
  endfacet
  facet normal -0.19445640093463865 -0.9775985734835635 -0.08054649128577207
    outer loop
      vertex -9.567086219787598 -23.096988677978516 1.1716300545648963E-15
      vertex -6.764951229095459 -23.096988677978516 -6.764951229095459
      vertex 2.1648902170310876E-15 -25.0 -2.1648902170310876E-15
    endloop
  endfacet
  facet normal -0.08054649128577208 0.9775985734835635 -0.19445640093463862
    outer loop
      vertex 0.0 25.0 0.0
      vertex -1.7574451347869037E-15 23.096988677978516 -9.567086219787598
      vertex -6.764951229095459 23.096988677978516 -6.764951229095459
    endloop
  endfacet
  facet normal -0.22426318416998506 0.8102909010093217 -0.5414191352062109
    outer loop
      vertex -6.764951229095459 23.096988677978516 -6.764951229095459
      vertex -1.7574451347869037E-15 23.096988677978516 -9.567086219787598
      vertex -3.247335219667513E-15 17.677669525146484 -17.677669525146484
    endloop
  endfacet
  facet normal -0.22426315032729024 0.8102909074848418 -0.5414191395330156
    outer loop
      vertex -1.7574451347869037E-15 23.096988677978516 -9.567086219787598
      vertex -3.247335219667513E-15 17.677669525146484 -17.677669525146484
      vertex -12.5 17.677669525146484 -12.5
    endloop
  endfacet
  facet normal -0.3256343929054737 0.5252893459987252 -0.7861509684133927
    outer loop
      vertex -12.5 17.677669525146484 -12.5
      vertex -3.247335219667513E-15 17.677669525146484 -17.677669525146484
      vertex -4.242847748619572E-15 9.567086219787598 -23.096988677978516
    endloop
  endfacet
  facet normal -0.32563441428491874 0.5252893419079452 -0.7861509622911084
    outer loop
      vertex -3.247335219667513E-15 17.677669525146484 -17.677669525146484
      vertex -4.242847748619572E-15 9.567086219787598 -23.096988677978516
      vertex -16.3320369720459 9.567086219787598 -16.3320369720459
    endloop
  endfacet
  facet normal -0.37638070341058993 0.1807443322438586 -0.9086633328476897
    outer loop
      vertex -16.3320369720459 9.567086219787598 -16.3320369720459
      vertex -4.242847748619572E-15 9.567086219787598 -23.096988677978516
      vertex -4.592425445731473E-15 1.5308084466174516E-15 -25.0
    endloop
  endfacet
  facet normal -0.3763806802478615 0.18074433407965115 -0.9086633420768445
    outer loop
      vertex -4.242847748619572E-15 9.567086219787598 -23.096988677978516
      vertex -4.592425445731473E-15 1.5308084466174516E-15 -25.0
      vertex -17.677669525146484 1.5308084466174516E-15 -17.677669525146484
    endloop
  endfacet
  facet normal -0.37638068024786153 -0.18074433407965104 -0.9086633420768445
    outer loop
      vertex -17.677669525146484 1.5308084466174516E-15 -17.677669525146484
      vertex -4.592425445731473E-15 1.5308084466174516E-15 -25.0
      vertex -4.242847748619572E-15 -9.567086219787598 -23.096988677978516
    endloop
  endfacet
  facet normal -0.37638070341058993 -0.1807443322438585 -0.9086633328476896
    outer loop
      vertex -4.592425445731473E-15 1.5308084466174516E-15 -25.0
      vertex -4.242847748619572E-15 -9.567086219787598 -23.096988677978516
      vertex -16.3320369720459 -9.567086219787598 -16.3320369720459
    endloop
  endfacet
  facet normal -0.3256344142849188 -0.5252893419079452 -0.7861509622911085
    outer loop
      vertex -16.3320369720459 -9.567086219787598 -16.3320369720459
      vertex -4.242847748619572E-15 -9.567086219787598 -23.096988677978516
      vertex -3.247335219667513E-15 -17.677669525146484 -17.677669525146484
    endloop
  endfacet
  facet normal -0.3256343929054737 -0.5252893459987253 -0.7861509684133927
    outer loop
      vertex -4.242847748619572E-15 -9.567086219787598 -23.096988677978516
      vertex -3.247335219667513E-15 -17.677669525146484 -17.677669525146484
      vertex -12.5 -17.677669525146484 -12.5
    endloop
  endfacet
  facet normal -0.22426315032729024 -0.8102909074848417 -0.5414191395330157
    outer loop
      vertex -12.5 -17.677669525146484 -12.5
      vertex -3.247335219667513E-15 -17.677669525146484 -17.677669525146484
      vertex -1.7574451347869037E-15 -23.096988677978516 -9.567086219787598
    endloop
  endfacet
  facet normal -0.22426318416998509 -0.8102909010093216 -0.5414191352062108
    outer loop
      vertex -3.247335219667513E-15 -17.677669525146484 -17.677669525146484
      vertex -1.7574451347869037E-15 -23.096988677978516 -9.567086219787598
      vertex -6.764951229095459 -23.096988677978516 -6.764951229095459
    endloop
  endfacet
  facet normal -0.08054649128577208 -0.9775985734835635 -0.19445640093463862
    outer loop
      vertex -6.764951229095459 -23.096988677978516 -6.764951229095459
      vertex -1.7574451347869037E-15 -23.096988677978516 -9.567086219787598
      vertex 2.1648902170310876E-15 -25.0 -2.1648902170310876E-15
    endloop
  endfacet
  facet normal 0.08054649128577204 0.9775985734835635 -0.19445640093463865
    outer loop
      vertex 0.0 25.0 0.0
      vertex 6.764951229095459 23.096988677978516 -6.764951229095459
      vertex -1.7574451347869037E-15 23.096988677978516 -9.567086219787598
    endloop
  endfacet
  facet normal 0.22426316923379083 0.8102909292371528 -0.5414190991470541
    outer loop
      vertex -1.7574451347869037E-15 23.096988677978516 -9.567086219787598
      vertex 6.764951229095459 23.096988677978516 -6.764951229095459
      vertex 12.5 17.677669525146484 -12.5
    endloop
  endfacet
  facet normal 0.22426314224388103 0.8102909227616342 -0.5414191200179398
    outer loop
      vertex 6.764951229095459 23.096988677978516 -6.764951229095459
      vertex 12.5 17.677669525146484 -12.5
      vertex -3.247335219667513E-15 17.677669525146484 -17.677669525146484
    endloop
  endfacet
  facet normal 0.32563440114295367 0.5252893111291421 -0.7861509883004291
    outer loop
      vertex -3.247335219667513E-15 17.677669525146484 -17.677669525146484
      vertex 12.5 17.677669525146484 -12.5
      vertex 16.3320369720459 9.567086219787598 -16.3320369720459
    endloop
  endfacet
  facet normal 0.3256344205896133 0.5252893152199218 -0.7861509775119868
    outer loop
      vertex 12.5 17.677669525146484 -12.5
      vertex 16.3320369720459 9.567086219787598 -16.3320369720459
      vertex -4.242847748619572E-15 9.567086219787598 -23.096988677978516
    endloop
  endfacet
  facet normal 0.37638070001848706 0.1807443804777421 -0.9086633246584298
    outer loop
      vertex -4.242847748619572E-15 9.567086219787598 -23.096988677978516
      vertex 16.3320369720459 9.567086219787598 -16.3320369720459
      vertex 17.677669525146484 1.5308084466174516E-15 -17.677669525146484
    endloop
  endfacet
  facet normal 0.3763806771139672 0.1807443786419491 -0.9086633345109548
    outer loop
      vertex 16.3320369720459 9.567086219787598 -16.3320369720459
      vertex 17.677669525146484 1.5308084466174516E-15 -17.677669525146484
      vertex -4.592425445731473E-15 1.5308084466174516E-15 -25.0
    endloop
  endfacet
  facet normal 0.3763806771139673 -0.18074437864194903 -0.9086633345109548
    outer loop
      vertex -4.592425445731473E-15 1.5308084466174516E-15 -25.0
      vertex 17.677669525146484 1.5308084466174516E-15 -17.677669525146484
      vertex 16.3320369720459 -9.567086219787598 -16.3320369720459
    endloop
  endfacet
  facet normal 0.3763807000184871 -0.180744380477742 -0.9086633246584298
    outer loop
      vertex 17.677669525146484 1.5308084466174516E-15 -17.677669525146484
      vertex 16.3320369720459 -9.567086219787598 -16.3320369720459
      vertex -4.242847748619572E-15 -9.567086219787598 -23.096988677978516
    endloop
  endfacet
  facet normal 0.32563442058961334 -0.5252893152199218 -0.7861509775119869
    outer loop
      vertex -4.242847748619572E-15 -9.567086219787598 -23.096988677978516
      vertex 16.3320369720459 -9.567086219787598 -16.3320369720459
      vertex 12.5 -17.677669525146484 -12.5
    endloop
  endfacet
  facet normal 0.32563440114295367 -0.5252893111291421 -0.7861509883004291
    outer loop
      vertex 16.3320369720459 -9.567086219787598 -16.3320369720459
      vertex 12.5 -17.677669525146484 -12.5
      vertex -3.247335219667513E-15 -17.677669525146484 -17.677669525146484
    endloop
  endfacet
  facet normal 0.22426314224388105 -0.8102909227616341 -0.5414191200179398
    outer loop
      vertex -3.247335219667513E-15 -17.677669525146484 -17.677669525146484
      vertex 12.5 -17.677669525146484 -12.5
      vertex 6.764951229095459 -23.096988677978516 -6.764951229095459
    endloop
  endfacet
  facet normal 0.22426316923379083 -0.8102909292371527 -0.5414190991470542
    outer loop
      vertex 12.5 -17.677669525146484 -12.5
      vertex 6.764951229095459 -23.096988677978516 -6.764951229095459
      vertex -1.7574451347869037E-15 -23.096988677978516 -9.567086219787598
    endloop
  endfacet
  facet normal 0.08054649128577208 -0.9775985734835635 -0.19445640093463873
    outer loop
      vertex -1.7574451347869037E-15 -23.096988677978516 -9.567086219787598
      vertex 6.764951229095459 -23.096988677978516 -6.764951229095459
      vertex 2.1648902170310876E-15 -25.0 -2.1648902170310876E-15
    endloop
  endfacet
  facet normal 0.1944564009346386 0.9775985734835635 -0.08054649128577208
    outer loop
      vertex 0.0 25.0 0.0
      vertex 9.567086219787598 23.096988677978516 -2.3432601091297927E-15
      vertex 6.764951229095459 23.096988677978516 -6.764951229095459
    endloop
  endfacet
  facet normal 0.5414191352062108 0.8102909010093216 -0.22426318416998509
    outer loop
      vertex 6.764951229095459 23.096988677978516 -6.764951229095459
      vertex 9.567086219787598 23.096988677978516 -2.3432601091297927E-15
      vertex 17.677669525146484 17.677669525146484 -4.329780434062175E-15
    endloop
  endfacet
  facet normal 0.5414191395330156 0.8102909074848418 -0.22426315032729024
    outer loop
      vertex 9.567086219787598 23.096988677978516 -2.3432601091297927E-15
      vertex 17.677669525146484 17.677669525146484 -4.329780434062175E-15
      vertex 12.5 17.677669525146484 -12.5
    endloop
  endfacet
  facet normal 0.7861509684133926 0.5252893459987253 -0.3256343929054737
    outer loop
      vertex 12.5 17.677669525146484 -12.5
      vertex 17.677669525146484 17.677669525146484 -4.329780434062175E-15
      vertex 23.096988677978516 9.567086219787598 -5.657130613837078E-15
    endloop
  endfacet
  facet normal 0.7861509622911084 0.5252893419079452 -0.32563441428491874
    outer loop
      vertex 17.677669525146484 17.677669525146484 -4.329780434062175E-15
      vertex 23.096988677978516 9.567086219787598 -5.657130613837078E-15
      vertex 16.3320369720459 9.567086219787598 -16.3320369720459
    endloop
  endfacet
  facet normal 0.9086633328476897 0.18074433224385855 -0.37638070341059005
    outer loop
      vertex 16.3320369720459 9.567086219787598 -16.3320369720459
      vertex 23.096988677978516 9.567086219787598 -5.657130613837078E-15
      vertex 25.0 1.5308084466174516E-15 -6.1232337864698064E-15
    endloop
  endfacet
  facet normal 0.9086633420768445 0.18074433407965113 -0.37638068024786153
    outer loop
      vertex 23.096988677978516 9.567086219787598 -5.657130613837078E-15
      vertex 25.0 1.5308084466174516E-15 -6.1232337864698064E-15
      vertex 17.677669525146484 1.5308084466174516E-15 -17.677669525146484
    endloop
  endfacet
  facet normal 0.9086633420768445 -0.18074433407965107 -0.3763806802478616
    outer loop
      vertex 17.677669525146484 1.5308084466174516E-15 -17.677669525146484
      vertex 25.0 1.5308084466174516E-15 -6.1232337864698064E-15
      vertex 23.096988677978516 -9.567086219787598 -5.657130613837078E-15
    endloop
  endfacet
  facet normal 0.9086633328476896 -0.18074433224385847 -0.37638070341059
    outer loop
      vertex 25.0 1.5308084466174516E-15 -6.1232337864698064E-15
      vertex 23.096988677978516 -9.567086219787598 -5.657130613837078E-15
      vertex 16.3320369720459 -9.567086219787598 -16.3320369720459
    endloop
  endfacet
  facet normal 0.7861509622911084 -0.5252893419079452 -0.3256344142849188
    outer loop
      vertex 16.3320369720459 -9.567086219787598 -16.3320369720459
      vertex 23.096988677978516 -9.567086219787598 -5.657130613837078E-15
      vertex 17.677669525146484 -17.677669525146484 -4.329780434062175E-15
    endloop
  endfacet
  facet normal 0.7861509684133927 -0.5252893459987252 -0.3256343929054737
    outer loop
      vertex 23.096988677978516 -9.567086219787598 -5.657130613837078E-15
      vertex 17.677669525146484 -17.677669525146484 -4.329780434062175E-15
      vertex 12.5 -17.677669525146484 -12.5
    endloop
  endfacet
  facet normal 0.5414191395330157 -0.8102909074848417 -0.22426315032729024
    outer loop
      vertex 12.5 -17.677669525146484 -12.5
      vertex 17.677669525146484 -17.677669525146484 -4.329780434062175E-15
      vertex 9.567086219787598 -23.096988677978516 -2.3432601091297927E-15
    endloop
  endfacet
  facet normal 0.5414191352062109 -0.8102909010093216 -0.22426318416998509
    outer loop
      vertex 17.677669525146484 -17.677669525146484 -4.329780434062175E-15
      vertex 9.567086219787598 -23.096988677978516 -2.3432601091297927E-15
      vertex 6.764951229095459 -23.096988677978516 -6.764951229095459
    endloop
  endfacet
  facet normal 0.19445640093463862 -0.9775985734835635 -0.0805464912857721
    outer loop
      vertex 6.764951229095459 -23.096988677978516 -6.764951229095459
      vertex 9.567086219787598 -23.096988677978516 -2.3432601091297927E-15
      vertex 2.1648902170310876E-15 -25.0 -2.1648902170310876E-15
    endloop
  endfacet
endsolid v3d.csg
